<svg id="레이어_1" data-name="레이어 1" xmlns="http://www.w3.org/2000/svg" viewBox="0 0 477 477"><title>무제-1</title><path d="M120.7,258.7l-9.9,14.9H78.6l-24.8-7.4L36.5,251.3l-10-19.8-4.9-29.7V177l9.9-34.7,14.9-19.8,14.8-19.9L81.1,87.8l19.8-14.9,17.3-7.4,29.8-10,37.1-7.4h79.3l17.4,2.5,22.3,4.9L314,63l-17.3,7.4-7.5,7.4-14.8,5-12.4,5-10,9.9v7.4l5,9.9-9.9,2.5-14.9,5-12.4,12.3-9.9,22.3V177l7.5,17.3-2.5,12.4-2.5,9.9-19.8,7.5H172.7l-19.8,7.4Z" style="fill:#9f9f9f"/><path d="M299,66.5,314,59l45,20.1,37.5,35.1L424,149.3,444,187c-1.7,4.1-6.5,11.5-12.5,17.5s-17.5,5-22.5,2.5l-2.5,5-10,7.6H384L366.5,212l-15-17.5v5c-1.7,2.5-6.5,12-12.5,20.1s-21.7-5.9-27.5-12.6l-5-12.5L289,187H269l-30,12.5-27.5,17.6,5-22.6L209,174.4l2.5-25.1L224,129.2l15-7.5,17.5-7.5-5-15.1,15-15,22.5-5Z" style="fill:#9f9f9f"/><path d="M123.5,255.4l-10,17.6,5,27.7,5,20.1L148.3,341l37.4,5,39.8-5,47.3-20.2h22.4l27.3-10h42.3l10-10.1,7.4-20.1,17.5,5c4.1,0,14.4-2.5,22.4-12.6s-3.4-20.9-10-25.1V207.6l-22.4,10.1-19.9-10.1-14.9-15.1a107.5,107.5,0,0,1-12.5,15.1c-5.9,6.1-24-2.5-32.3-7.5L295.2,185H265.3l-34.8,22.6-27.4,15.1H168.2l-19.9,12.6Z" style="fill:#9f9f9f"/><path d="M402.5,324.3l-33.4-7.7L364,306.3l18-20.5h10.2c3.5,0,13.4-2.6,25.7-12.9s-5.1-18-15.4-20.5l10.3-23.1V203.6s15.4,3.4,18,0l15.4-10.3,12.8,36v35.9l-12.8,33.4-15.4,18Z" style="fill:#9f9f9f"/><path d="M215.3,200.2h0a.3.3,0,0,1,.1-.2Z" style="fill:none"/><path d="M74.4,257.2h0a16.4,16.4,0,0,0-2.4,2.1A16.4,16.4,0,0,1,74.4,257.2Z" style="fill:none"/><path d="M217.6,196a10.1,10.1,0,0,0,.7-1.5A10.1,10.1,0,0,1,217.6,196Z" style="fill:none"/><path d="M401,214.9a6,6,0,0,1-.3,2,6,6,0,0,0,.3-2Z" style="fill:none"/><path d="M51.9,259.1c7.5,1,15.2.9,22.5-1.9h0C67.1,260,59.4,260.1,51.9,259.1Z" style="fill:none"/><path d="M390.8,163.6c2.2-1.6,4.1-3.8,6.2-5.6h0C394.9,159.8,393,162,390.8,163.6Z" style="fill:none"/><path d="M269.5,44.6c7.1,1.5,14.3,2.6,21.2,4.6,12.8,3.8,25.6,7.4,37.9,12.5,31.5,13,55.6,36,77.6,61.1,15.2,17.3,27.2,36.9,37.7,57.3A162.4,162.4,0,0,1,457.7,219c2.6,11.9,4.7,23.7,4,35.9-1.3,24.6-9,46.8-27,64.2-3.8,3.7-9.6,5.8-14.9,7.5s-10,1.6-15.1,2c-2.4.2-3.7.7-4.6,3.3-2.1,6.2-4.2,12.5-7.5,18.1-7.2,12-19.1,17.1-32.3,18.9-11.6,1.6-23.4,2-35.1,3-3.6.4-7.2,1-10.8,1.6s-4.2,2.3-2.9,5c3.3,7.2,6.9,14.3,10.4,21.4.6,1.2,1.3,2.3,1.9,3.4,5.4,9.3,1.7,12.9-6.6,16.8a23.9,23.9,0,0,1-6.2,2.1c-5.4.6-9.7,0-13.5-5.8-12.6-19.2-28.5-35.8-46.1-50.7a23.8,23.8,0,0,0-6-3.4,34.4,34.4,0,0,1-17.6-14.9c-1.3-2.2-2.6-3.1-5.6-2.4-8.5,2-17.2,3.7-25.9,4.9-12.8,1.8-25.2-.2-37.4-3.9s-21.8-6.3-31-13.3-12.5-14.1-12.1-24.3,0-17.8-4.5-25.8c-.7-1.3-2.6-2.8-3.9-2.8-15.3,1-29.7-2.7-44.1-7-19-5.7-31.9-18.3-38.2-36.5-4.1-11.8-5.1-24.6-7.6-36.9a35.6,35.6,0,0,0-1.8-5.2q0,114.8.1,229.3H464.6V44.6Z" style="fill:#fff"/><path d="M25.1,236.3c6.3,18.2,19.2,30.8,38.2,36.5,14.4,4.3,28.8,8,44.1,7,1.3,0,3.2,1.5,3.9,2.8,4.5,8,4.8,16.8,4.5,25.8s4,18.3,12.1,24.3,20.1,10.1,31,13.3,24.6,5.7,37.4,3.9c8.7-1.2,17.4-2.9,25.9-4.9,3-.7,4.3.2,5.6,2.4a34.4,34.4,0,0,0,17.6,14.9,23.8,23.8,0,0,1,6,3.4c17.6,14.9,33.5,31.5,46.1,50.7,3.8,5.8,8.1,6.4,13.5,5.8a23.9,23.9,0,0,0,6.2-2.1c8.3-3.9,12-7.5,6.6-16.8-.6-1.1-1.3-2.2-1.9-3.4-3.5-7.1-7.1-14.2-10.4-21.4-1.3-2.7,0-4.5,2.9-5s7.2-1.2,10.8-1.6c11.7-1,23.5-1.4,35.1-3,13.2-1.8,25.1-6.9,32.3-18.9,3.3-5.6,5.4-11.9,7.5-18.1.9-2.6,2.2-3.1,4.6-3.3,5.1-.4,10.3-.5,15.1-2s11.1-3.8,14.9-7.5c18-17.4,25.7-39.6,27-64.2.7-12.2-1.4-24-4-35.9a162.4,162.4,0,0,0-13.8-38.9c-10.5-20.4-22.5-40-37.7-57.3-22-25.1-46.1-48.1-77.6-61.1-12.3-5.1-25.1-8.7-37.9-12.5-6.9-2-14.1-3.1-21.2-4.6H189.9l-17.4,3.5C163,50,153.4,51.7,144,54s-17,4.8-25.5,7.4c-13.7,4.2-25.2,12.4-36.4,21s-21.3,16-29.9,25.8c-13.2,15-25.3,31.2-29.7,51.5-1.8,8-3.3,16.1-5.1,24.2-.2,1.2-1.1,2.2-1.7,3.3v7a35.6,35.6,0,0,1,1.8,5.2C20,211.7,21,224.5,25.1,236.3ZM103,270.1c-7.8,2.4-15.7,2-23.6-.1a31.1,31.1,0,0,1-6.1-2c-1.8-.9-4.3-2.3-4.6-3.8s2-3.3,3.3-4.9a16.4,16.4,0,0,1,2.4-2.1h0c-7.3,2.8-15,2.9-22.5,1.9l-3.2-.4c-6-1-9.2-6.5-13-12.8,5,0,9.1.3,13-.1a27.7,27.7,0,0,1,21.4,6.7,38.7,38.7,0,0,1,4.3,4.7h0c8.8,4.4,18.1,5.7,27.8,5.4,1.7,0,3.4,1.9,5.1,3C105.9,267.1,104.7,269.6,103,270.1Zm127.2,73.1a38.2,38.2,0,0,1,4.6-2.1c2.4-.8,4-.5,5.6,2.3,3.4,6.4,9.2,10.6,15.7,13.7l6,3.1C253,364.2,233.6,355.1,230.2,343.2ZM287.4,327c2-3.1,5-3,8-3.1.5,0,1.9,2.4,1.6,3.1-4.9,11.2-13.8,18-25.1,21.8-1.2.4-2.8-.8-4.3-1.2a10.9,10.9,0,0,0-.1-1.8C277.3,342.8,282.3,334.8,287.4,327Zm-21.8,15c-.9-2.2-1.9-4.8-1.8-7.2s2.1-3.1,3.6-4.1c4.4-2.8,9.2-5,14.8-4.8-.6,6.3-7.7,15.4-13.2,16.8C268,343,265.9,342.6,265.6,342Zm14,15.9a34.9,34.9,0,0,1,7.7-2.6,4.5,4.5,0,0,1,3.4,1.1c3.5,3.9,6.8,7.8,10.1,11.8a5.4,5.4,0,0,1,.7,1.9c-7.6,2.9-20.3-1.9-23.4-8.9C277.7,360.4,278.7,358.3,279.6,357.9Zm4.2-6.7c-1,.5-2.4.1-3.7.1l-.3-1c2.1-1.5,4-3.2,6.2-4.6,7-4.2,11.3-10.6,14.6-17.8,1.8-4,8-7.2,11.8-5.5.7.4,1.1,3.1.6,4.2-3.8,7.9-9.9,13.8-17.3,18.5A133.4,133.4,0,0,1,283.8,351.2Zm26.3-36.8a28.6,28.6,0,0,1-8.1,2.7c-7.1,1.3-14.3,2.1-21.5,3.1a5,5,0,0,0-.2-1.2l-13.7,1.7a6.4,6.4,0,0,1-3.3-.7,21.7,21.7,0,0,1-11-11.3c-1.8-4.1.9-8.3,5.5-7.9a130.3,130.3,0,0,1,16.2,2.7c6.2,1.3,11.8-.3,17.1-3.4s9.1-3.7,14.8,1.2a37,37,0,0,0,4.6,3.1C315.5,307.7,315.4,311.6,310.1,314.4Zm-42.5,39.8a22.1,22.1,0,0,1,1.9,3.5c-11.2-1-24.7-10.5-26.4-18.5a4.7,4.7,0,0,1,1.4-.8c9.1-3.6,9.1-3.6,14.8,4.6C262,346.8,264.9,350.4,267.6,354.2Zm49.6,45.5c.7.9,1.5,1.8,2.1,2.7,3,4.5,3,7.5-.1,10.7-4.9,5-9,6-13.4,2.4s-5.7-6.1-8.5-9.2l-30.7-35.6c-1-1-1.9-2.1-3.2-3.6,6.8-2.3,12.1-3.2,17.1,2.9s10.8,5.6,17,5.2c4.1-.3,5.6,1.7,7.4,5C308.6,386.9,313.1,393.2,317.2,399.7Zm-1.5-29.5c-7.5-.1-20-9.3-21.5-15.3a3.4,3.4,0,0,1,1.5-3c1.2-.4,3.2-.4,4.1.3,3.2,2.5,6,5.5,9.1,8.1s4.8,3.7,7.2,5.6a14.4,14.4,0,0,1,2.2,2.7C317.2,369.3,316,369.9,315.7,370.2Zm30.5-3.4c-5.4.2-10.8.4-16.2.3-7.4-.3-13-4.6-18.5-8.9a51.8,51.8,0,0,1-7.6-7.2c-.7-.8-.6-2.5-.9-3.8,1.6-.3,3.5-1.3,4.6-.7,4.2,2,8.1,4.5,12.1,6.8a92.9,92.9,0,0,0,28.7,10.6c.5.1.9.6,2.3,1.6A30.9,30.9,0,0,1,346.2,366.8Zm-36.6-25.2c2.2-2,4.4-4.3,6.9-6.3s5-1.7,6.8.9c7.1,10.2,17.3,16.1,28.2,21.1l6.4,3C350.2,366.1,315.5,349.9,309.6,341.6Zm58.2,17.8a84.9,84.9,0,0,1-13.9-4.9c-8.8-3.9-17.2-8.4-23.8-15.6a36.2,36.2,0,0,1-2.6-3.8c7.8-2.6,17.2,0,22,5.3s12.7,10.5,20.3,14.1c1.2.6,2,2.2,3,3.4C371.1,358.4,369.2,359.8,367.8,359.4Zm13.2-7.1c-1.3,3-4.5,3.1-7.2,1.8a134,134,0,0,1-13-6.8,39.5,39.5,0,0,1-6.6-5,23.3,23.3,0,0,1-2.7-4l1.1-1a59.8,59.8,0,0,1,25.7,10.1C379.8,348.4,381.5,351.3,381,352.3Zm7.2-6.9c-1.5,2.2-3,2.3-5.3.6-9.6-7.4-21-10.5-32.6-12.3-8.7-1.5-17.6-1.8-26.4-2.8-1.2-.2-2.3-1.4-3.5-2.1,1.1-1.5,2.1-3.9,3.5-4.2s5.7-.2,8.7-.2a146.7,146.7,0,0,1,43.1,7.5c4.5,1.5,8.5,4.3,12.6,6.8S389.8,343.1,388.2,345.4Zm3.4-9.1c-17.5-12-38-13.7-58.4-16.4,6.6-2.5,13.2-4.7,20.2-3.7,12.5,1.8,24.8,4.5,36.4,9.6C395,328,395.7,331.4,391.6,336.3Zm50.3-137.4a11,11,0,0,1,5.1,6.3c2.2,8.6,3.8,17.3,5.4,26s-1.8,9.8-8.6,7.3a54.6,54.6,0,0,0-7.7-2.8c-3.4-.7-2.9-2.4-2.1-4.8s2.3-7,3.6-11.1c-1.3-3.6-2.8-7.2-3.8-10.8-.5-1.5,0-3.3.4-4.9a3.9,3.9,0,0,1,1.8-1.8C438,201,440.8,198.3,441.9,198.9ZM129.4,69.4c3.2-5.9,9.5-6.7,15.1-8.3,8.7-2.4,17.4-4.6,26.1-6.5a66.3,66.3,0,0,1,12.6-1.1c3-.1,4,2.3,2.1,4.8a11.7,11.7,0,0,1-9.8,4.9,10.2,10.2,0,0,0-5.8,2.2c4.1-.5,8.3-1,12.4-1.8.9-.1,1.6-1.4,2.4-2.1,3.5-2.8,6.6-6.3,10.5-8.1,7-3.4,9.8-1.6,12.5,7.6,1.1-8.9,6.8-12.4,13.4-13.5a90.2,90.2,0,0,1,22.6-.9A104.5,104.5,0,0,1,264.2,51c4.7,1.5,4.9,3.5,2,9.1,4.4-.9,8.1-1.9,11.9-2.4,6.6-.8,13.2-1.7,19.8-1.6,4.9.1,9.1,4.4,8,7s-5.7,3.9-9.3,4.2l-2.9-.2c.5,9-6.6,10-12.5,11.8-9.4,2.8-18.8,5.2-26.2,12.2-2.3,2.2-4.5,4.6-6.8,6.9.6,1.7,1.9,4,2.6,6.5,2.1,7.5-.7,12.5-8.4,13.8s-15.1,4-21,9.6-8.4,9.8-9.5,16.2a263.8,263.8,0,0,0-3.8,29.3c-.2,4,1.9,8.5,4,12.1a16.2,16.2,0,0,1,1,1.8c2.2,4.1,3.5,8.2,2.2,13h0c.7-1.5,1.6-2.9,2.3-4.3a10.1,10.1,0,0,0,.7-1.5c.3-1.2.3-3.1-.4-3.9-7.8-8.3-7.8-18.2-4.6-27.9s8.1-19.8,12.9-29.3c3.7-7.4,10.9-10.5,18.8-11.9,4.4-.9,8.9-1.5,13.1-2.9a10.2,10.2,0,0,0,5.5-4.9c.4-.9-1.8-3.7-3.4-5-8.7-7-8.8-10.1,0-17.4s18-10.4,28.6-11.8c2.2-.3,3-1.1,3.9-3.1a13.8,13.8,0,0,1,5.3-5.9c11.8-5.9,23.9-5.7,35.7-.4a7.9,7.9,0,0,1,4,5.4c.2,1.1-2.4,3.3-4.1,4.1-6.9,3.2-9.9,2.7-17.6-1.7,5,6.9,11.3,8,18.2,3.4a27.4,27.4,0,0,1,9.3-4.4c4.9-1,6.8,2,5.4,6.9s-2.1,9.1-3.1,13.7l1.4.4c.3-1,.7-1.9,1.1-2.9,2.9-8.1,9.8-10.1,16.5-4.6,4.3,3.6,8.2,7.8,12.3,11.7l6.1,6.2c2.6,2.8,3.7,6.2,2.4,9.7s-4.8,3.8-8.1,4.1a89.5,89.5,0,0,0-11.6,1.3c-3.2.6-5.2-.8-7.2-2.9s-4.8-4.8-7.2-7.1l-.8.7c1.9,3.3,4,6.4,5.6,9.8,4.7,9.4,3,19.5,2.3,29.3-1,14.3-3.5,28.5-9.2,41.9-7,16.5-15.9,31.4-33.2,39.5,2.7-.4,5.6-.5,8.1-1.4,4.2-1.5,6.1,0,6.5,3.4l6.8-11.4,11.2-18.6c.6-1.1,1-2.4,1.7-3.5,3-4.7,5.3-4.8,9-.5a120.6,120.6,0,0,0,9.7,10.5,24.4,24.4,0,0,0,17.5,6.4c5.6-.1,6.8,1.7,5.1,6.9-.3,1.1-.5,2.3-.6,2.6l9.5-12.1a6,6,0,0,0,.3-2c-6.9,5.5-16.3,5.5-24.2.6-14.2-8.9-20.2-23.7-18-41,1.8-14.4,6.1-28.4,5-43.2a6.9,6.9,0,0,1,7.6-7.2c6.1.6,12.1,2.6,18.2,3.3,17.2,1.9,26.1,14.5,35.2,26.8,2.4,3.3.8,6.6-3.4,7.1h-1.7c-7.8-.9-9.8,1.5-11.7,10.1-1.6,6.9-6.1,11-12.7,10.9-4.2-.1-7.8-2.6-8.7-5.9s.1-8.1,3.9-10.7l2.8-1.8c3.3-2.3,3.3-2.9,3.7-5.9-2.1,1.8-4,4-6.2,5.6l-.9.7c-4,2.5-5.5,1.6-6.8-2.8a29.5,29.5,0,0,0-2.4-5.8c.8,7.2,1.7,14.4,2.4,21.7.5,4.6,2.8,8,7.2,9.5s9.1.9,12.5-2.8a105.8,105.8,0,0,0,7.9-9.8c5.2-7,11-9.9,16.9-8s11.1,9.2,11.6,16.5-2.2,15.1-7.6,21l-2.9,3.1c1.5,1.7,3.1,3.1,4.4,4.9,4.8,6.9,2.3,13.7-.9,20.2-1.4,2.8-1.4,4.6.2,7.4s2.3,7.6,3.2,11.1c.3-1.6.7-3.9.9-6.2.4-4.3,1.8-5.1,5.9-3.2A21.1,21.1,0,0,1,454.8,262a46,46,0,0,1-.5,7.4,9.6,9.6,0,0,1-2.6,5c-.6.5-3-.9-4.4-1.6s-2.1-1.6-3.6-2a46.3,46.3,0,0,1,3.1,4.6c2.8,4.9,3.5,9.8,0,14.8s-11.4,7.2-16.1,5.2a4.1,4.1,0,0,0-3.4.3c-5.2,4.1-11.1,5.4-18.1,4.4,5.6,2.8,5.6,3.3,1.8,10,1.7-1.5,4.1-2.7,5.1-4.6,3.6-7,10.7-7.1,16.9-8.8,1.6-.5,5.1,1.8,6.1,3.6s0,4.9-1.2,6.6a29.8,29.8,0,0,1-16.5,12.3c-13.8,4-27.3,3.1-40.2-3.6-6.1-3.2-7.9-9.7-4.8-16,2-4.2,3.6-8.5,5.8-12.6.5-.9,2.7-1.6,3.9-1.3,11.4,3.1,23,.4,31-7.1-5.1,1.5-10.9,3.6-16.8,4.8s-12.9.2-17.7-4.8-3.1-11.2-2.9-17.1c.1-.9,1.4-2.1,2.5-2.7a62.3,62.3,0,0,1,5.9-3.3c-4.9.5-9.5.6-13.8,1.6-10.4,2.3-19.9-.6-29.5-3.7-2.7-.9-5.3-2.2-8.1-3.1-4.4-1.3-6.6-4-6.3-7.2-3.2,3.2-6.7,7.7-11.1,10.9s-10.1,5-15.1,8.1l13.5-4.2a64.4,64.4,0,0,0,7-3.4c6-2.9,12-2.4,17.6.7,7.8,4.1,16,5.1,24.5,4.4,6.3-.6,9.7.6,11,7.9s3.9,17.3-.4,25.6-11.8,15.2-22.6,15.2-19.3-.2-28.8-1.2a29.5,29.5,0,0,1-13.3-4.9c-8.8-5.9-17.4-8.2-27.2-2.8-2.1,1.2-4.8,1.4-7.2,1.6-8,.5-12.1-3.2-13.1-11.8-2.4,7.8-7.9,11.4-15.5,10.5s-13.5-3.9-14.5-12.8l-.5.8c.6,9.1-3.3,14.6-12.3,16.6-7,1.7-14,3.8-20.9,5.7l-3.3,1.4c14,.4,14.8,1,18.2,12a29.2,29.2,0,0,0,.4-5.1c-.4-5.9,2.6-10,7.7-12a80.4,80.4,0,0,1,15.5-4.1,4.8,4.8,0,0,1,4,2.3c2.9,6.5,7.6,11.3,13.5,15.1a17,17,0,0,1,2.2,2.4,16.1,16.1,0,0,1-2.8,2.4c-14.2,6.9-29,12.5-44.5,15.7s-31.3,4.2-47.2.8c-10.8-2.3-21.1-5-29.9-12.1a32.7,32.7,0,0,1-6.6-6.8c-1-1.6-.4-4.1-.6-6.2,1.9-.1,3.9-.6,5.7-.2a60.3,60.3,0,0,1,8.1,2.4c-5.3-4.4-10.7-7.9-15-12.5-12.6-13.6-15.5-35.2,1.3-49.6,7.9-6.6,15.3-13.8,23.3-20.3s20.1-12.3,32.6-10.8c3,.4,6.3.5,8.9,1.8s2.8,3.8,2.6,5.5a95,95,0,0,1-3.3,14c-2.3,7.9-2.6,15.7,1.5,23.2.7,1.2,1.2,2.6,1.8,3.9,2.6,5.7,1.7,8-3.9,10.7-2.4,1.1-4.7,2.3-7,3.6-.3.1-.5.6-1.5,1.9,6.7-3.7,12.6-5.9,19.8-3.5-4.1-6.5-.1-10.7,4-15.7-6.1,4.3-8.4,3.6-11.2-2.8-3.6-8.4-2.2-16.7.7-25s9.7-14.9,17.7-20.1c13-8.5,25.1-18.2,37.9-27.1,7.5-5.4,16.2-6.7,25.4-5.7,3.4.3,7,.3,10.4.4,8.9.3,16.8,2.4,21.2,11.8.2-3.9-1.7-7.3-5.6-10.9s-4.1-5.1-.2-9.3c1.7-1.9,3.7-3.6,5.6-5.4,4.9-4.2,8.6-8.7,8-16-.4-3.7,1.3-7.6,1.5-11.6-1.4,4.1-2.6,8.3-4.1,12.3-2.4,7-5.4,13.6-11.5,18.1-7.7,5.7-16.6,6.7-25.4,4.1-12.3-3.6-18.4-12.8-18.7-26-1.8,3.2-2.4,6.4.1,11.6,5.2,10.5-.7,17.7-9.4,22.9s-17.5,10.8-26.4,16c-1.7,1.1-5.2,2.1-5.9,1.3s-1.5-4.3-2-6.5a8.3,8.3,0,0,1,.3-2.2c-1.7,2.9-3.3,5.8-5.1,8.6-5.1,8.1-12.5,11.7-22.1,10.9-6.1-.4-12.3-.6-18.4-.7-1.8,0-3.7.7-5.5,1s-4.8.8-5.1.2c-1.2-2.3-2.2-5.1-1.8-7.5s2.7-5.5,4-8.2c3.3-6.9,1.9-13.7-1-20.4,0,3.2.2,6.3,0,9.5s-.3,4.5-1.2,6.4c-2.7,5.5-5.5,11.1-8.7,16.4s-9.5,5.2-14.9,1.8-9.3-6.7-14-10.2c4.5,8.7,10.3,16,20.3,18.7,3.5.9,4,2.7,1.5,5.2s-5.4,4.5-7.9,6.9-8.2,7.4-11.7,11.7c-7.1,8.5-16.3,10.4-26.4,8.4a74.9,74.9,0,0,1-31.2-13.7c-3.4-2.5-5.6-6.7-8-9.6-1.4,1.7-2.9,5-5.5,6.5a17.5,17.5,0,0,1-9.6,1.9c-7.6-.8-12.7-6.1-13.6-14.2s-1.2-16.9-1.7-25.4c-.1-1,0-2.4.7-2.9,4-3.4,3.2-7.9,3.4-12.3C33,166,46.2,150.9,65.4,140c7.2-4,10.4-3.5,16.1,2.5,3.2,3.3,6.2,6,11.2,5.6,2.3-.2,3.1,1.2,2.4,3.4s-1.5,5.5-2.2,8.2l1.6.5c1.1-3.5,2.6-7,3.2-10.7,1.2-7.8,5.1-13.5,11.6-13.8s10.8.8,16.2,1.7,10.5,2.2,16,2.6c-6.1-.4-11.3-3.1-16.6-5.9-6.8-3.6-14.2-2.3-21.4-.7-5.7,1.2-8.4-.9-7.8-6.8a28.1,28.1,0,0,1,7.7-16.8c5.2-5.5,13.7-9.3,22.5-9.6l-2.8-.5c-3.6-.6-7.6-1.6-7.8-5.6A13.7,13.7,0,0,1,119,85c6.8-6.5,15.7-6.6,24.3-5.2,2.2.4,5.3,4,5.5,6.3a39.7,39.7,0,0,1-1.5,14.1c-1.7,5.7-1.7,7,3.6,9.5,7.6,3.7,12,10.3,16,17.3,1.6,2.8,3.1,5.6,4.9,8.2,4.8,6.9,3.8,15.4-3.1,20.1a298,298,0,0,1-26,15.6c-4.1,2.2-9,3.2-13.6,4.1s-11,1.2-16.4,2.1c-2.1.4-4.2,1.8-6.1,3.1a18.5,18.5,0,0,0-3.3,4c-8.7,12.7-12.6,14.1-27.2,10.4l3.8,2.2c3.7,2.2,4.1,4.6.3,6.7s-7.8,3.7-11.8,3.9c-6.3.2-12.6-.9-18.5-1.4,3.1,3,7.8,3.9,12.4,4.5,7.1.9,12,4.7,15.8,10.4,7.2,10.8,14,13.4,27.5,13.4l-12.4-5.6a20.6,20.6,0,0,1-3.7-2.3c-9.3-7.1-9.1-16.6.7-23.2,5.6-3.7,10.8-7.7,13.7-14.1s11.2-9.2,18.5-10.3a145.9,145.9,0,0,0,33.1-8.9c13.1-5.3,21.1-2.5,26.6,8.7a2.2,2.2,0,0,0,1.8,1.3l-5.6-10.7c-2.3-4.2-4.3-8.1-2-13.4s2.6-12,.7-18.3-.3-8.7,5-11.6c7.4-3.9,15-7.6,22.4-11.5a3,3,0,0,0,1.8-2,59.8,59.8,0,0,1-7.2,2.2c-7.9,1.7-12.7-1.7-12.6-9.8.1-5.5,1.9-10.9,2.7-16.3a19.2,19.2,0,0,0-.4-7.9c-1.7,6.6-3.7,13.1-4.8,19.8-.7,3.5-.2,7.3.4,10.8,1.1,5.5.1,8.7-4.5,11.3a11.7,11.7,0,0,1-13.3-1.8c-4.1-4.1-8.2-8.1-12.5-12s-5.3-8.4-1.9-15.3a38.1,38.1,0,0,1,2.4-4.2c-1.3-1.6-2.9-2.7-3.2-4.1-1.2-4.7-4.8-6.5-8.7-7.6s-6-.3-9-.7-4.5-.7-5.3-2S128.5,71,129.4,69.4Zm-95,77.7c.7-3.3,2.7-6.5,4.6-9.3,6.7-9.5,13.7-18.9,25.9-22.1.5-.2,1.3-.5,1.5-.9,3.1-7.2,9.7-10.1,16.1-13.3a7.5,7.5,0,0,1-.7-1.2c-3.4,2.1-7,3.9-10.2,6.2s-5.4,5-8.5,6.8c-1.6,1-4.3.2-6.4.3.3-1.9-.1-4.3.9-5.4a73.5,73.5,0,0,1,10.7-9.4C81.1,90,93.9,81.2,107,72.9c4.8-3,10.4-5,15.9-7,3.2-1.2,5.6,1.2,4.1,4.1-3.6,7.5-7,15.3-17.4,16.1,4.3,8.7,3.1,13.7-3.9,19.2-2.6,2.1-5.4,4.1-7.4,6.7-4.5,5.9-9.9,9.6-17.6,9.4-1.7,0-3.4.5-4.9.1,4.5,1.5,9.3,2.4,13.2,4.8s4.9,5.3,6.2,8.5-.6,5.8-3.3,7.8-4.9,1.3-7.2-.6l-4.4-3.5c-5.7-4.8-11.6-2.1-17.2,0a48.8,48.8,0,0,0-18.9,13.7c-2.3,2.7-5.1,3-7.2,1.4S34,149,34.4,147.1Zm-6,11.8c.5-1.2,2.7-1.7,4-2.4.8,1.7,2.5,3.5,2.3,5-.7,5-2.1,9.9-3.1,14.8l-5.4,26.3-.6,4.2H24.4a24.9,24.9,0,0,1-1.6-3.3C19,188,22.2,173.2,28.4,158.9Z"/><path d="M417.3,278.4c.2-.2.3-.5,0,0Z"/><path d="M22.5,159.7c4.4-20.3,16.5-36.5,29.7-51.5,8.6-9.8,19.4-17.8,29.9-25.8s22.7-16.8,36.4-21c8.5-2.6,16.9-5.3,25.5-7.4s19-4,28.5-5.9l17.4-3.5H15.7V187.2c.6-1.1,1.5-2.1,1.7-3.3C19.2,175.8,20.7,167.7,22.5,159.7Z" style="fill:#fff"/><path d="M215.3,200.3h0c.7-1.4,1.6-2.8,2.3-4.2C216.9,197.4,216,198.8,215.3,200.3Z" style="fill:#fff"/><path d="M401,214.9h.1s-.1-.1,0-.1Z" style="fill:#fff"/><path d="M417.3,278.4h-.1C417.2,278.5,417.2,278.5,417.3,278.4Z" style="fill:#fff"/><path d="M397,158h0c-.4,3-.4,3.6-3.7,5.9C396.6,161.6,396.6,161,397,158Z" style="fill:#fff"/><path d="M401.1,214.8Z" style="fill:#fff"/><path d="M215.3,200.3h0c1.3-4.8,0-8.9-2.2-13C215.3,191.4,216.6,195.5,215.3,200.3Z" style="fill:#fff"/><path d="M74.4,257.2Z" style="fill:#fff"/><path d="M74.5,257.1h0Z" style="fill:#fff"/><path d="M74.4,257.2Z" style="fill:#fff"/><path d="M239.2,238.7c-3.7-1.6-7.9-2.2-13-3.5,26.9,19.8,23.2,23.1,22.6,44.6v.3c.1-.3.1-.5.2-.8.5-2.2.9-4.5,1.5-6.8,2.7-8.9,7.3-11,16.2-7.5,2.3.9,4.6,1.4,7,2.1a15.3,15.3,0,0,0-5.5-3.7c-4.7-1.9-9.6-3.3-14-5.8-2.2-1.2-4.7-4.4-4.6-6.5s3-5.3,5.3-6c10.2-3.3,20.7-5.9,31.7-9-10,1.3-19.6,2.3-29.2,3.9C251.2,241.1,245.3,241.4,239.2,238.7Z"/><path d="M158.5,300.7c-.8-9.1.9-18.5,1.7-27.7.6-6.1,3.8-10.8,8.7-14.5a24.3,24.3,0,0,0,3.3-3.8c-5.9,3.5-12.9,5.9-14.2,13.9-.5,3.3-1.5,6.5-2.1,9.7-1.1,5-3.3,6.3-8.2,4.9-2.3-.6-4.7-.8-7.1-1.2.7,1.2,1.6,1.4,2.4,1.9,4.2,2.4,8.2,4.8,9.9,9.9a154.9,154.9,0,0,0,6.7,16.3c3.1,6.4,7.2,12.4,6.8,19.5l9.2-6C166.1,319.3,159.4,311.5,158.5,300.7Z"/><path d="M292.4,103Z"/><path d="M275.7,147.7a64.5,64.5,0,0,0,1.4,8.8c-.3-9.8,2.5-18.5,8.2-24.7s10.1-10.8,14.2-16.9,10.7-10.8,19.3-10a35.4,35.4,0,0,0,5.6-.2c0-.4-.1-.8-.1-1.1-6.5.5-13.2.4-19.4,1.9s-8.5.2-12.2-2.3c1.2,2.7,3.3,5.2,3.1,7.6-.7,8.2-5.6,14.4-11.5,19.9s-9.5,2.6-14.5,1.9a28.2,28.2,0,0,0-20.2,4.9c4.5-.8,8.7-2,13-2.1C274,134.9,275.3,136.3,275.7,147.7Z"/><path d="M292.4,103h0l.3.2c0-.1-.1-.2-.1-.3Z"/><path d="M403.2,215c6.4-1.2,8.3-.3,8.2,6.1s-1.4,12.9-2.6,19.3c-1,4.6-2.6,9.2-4,13.7,10.5-17,12.3-35.2,7-54.2a22.7,22.7,0,0,0-2.1,4.1c-2.1,4.2-3.5,9-8.6,10.8A7.8,7.8,0,0,0,403.2,215Z"/><path d="M401.1,214.8Z"/><path d="M401.1,214.9h0C401,214.8,401.1,214.9,401.1,214.9Z"/><path d="M324,284.1c4.1.2,8.1.6,11.8.9-1.1-2.6-.1-5.5,3.3-8.1l-23.8,7v.6C318.1,284.4,321.1,284,324,284.1Z"/><path d="M243.3,66.5a14.9,14.9,0,0,0-2.4,1.8c-1.5,1.7-3,3.5-4.4,5.3-4.6,5.7-11.2,4.8-13.9-2.1-.6-1.7-1-3.5-1.5-5.2a22.9,22.9,0,0,0-.6,7.8c.5,3.2-.3,5-3.9,4.9a48.6,48.6,0,0,0-5.5.7,27.9,27.9,0,0,1,18.7,6.9Z"/><path d="M74.6,167.9l-9.9-9.3c.1,1.7,0,3.5.8,4.6,2.6,3.8.1,4.9-2.4,6.7-4.2,3.1-8.2,6.5-12.2,9.8l.4.3Z"/><path d="M64.3,158.3l.4.3c-.1-.4-.1-.8-.2-1.2A2.9,2.9,0,0,1,64.3,158.3Z"/></svg>