<svg xmlns="http://www.w3.org/2000/svg" viewBox="0 0 384.4 286.7"><title>brain</title><g id="레이어_2" data-name="레이어 2"><g id="레이어_1-2" data-name="레이어 1"><path d="M382.1,157.3c-1.8-5.7-2.9-11.5-4.3-17.2s-2.6-12.9-5.8-18.3a17.2,17.2,0,0,0-5.1-5.3,24.5,24.5,0,0,1-3.8-2.4l-1.4-1.6h0a11.4,11.4,0,0,1-1.5-2.9,58,58,0,0,0-3.7-10.1,50.8,50.8,0,0,0-4.6-6.8,49.2,49.2,0,0,0-6.6-6.3,32.4,32.4,0,0,1-6.1-6.7,43.9,43.9,0,0,1-5.2-9.5,49.7,49.7,0,0,0-3.8-8.1,35.1,35.1,0,0,0-12.6-11.6c-3.3-1.7-6.7-3.2-10.1-4.7a50.9,50.9,0,0,1-5.4-2.2c-5.7-2.9-9.2-8.6-14.9-11.3-2.6-1.1-5.3-1.8-7.8-3.1a42.3,42.3,0,0,1-8.6-5.9,55.7,55.7,0,0,0-15.4-9.5c-6.1-2.5-12.6-4.1-18.9-5.8-4.8-1.3-9.6-2.3-14.3-3.5S210.4.5,204.3,0a22.3,22.3,0,0,0-8.8,1.4,28.1,28.1,0,0,0-3.9,1.9,5,5,0,0,1-1.7,1,14.2,14.2,0,0,1-3.6-.4c-7.7-.8-15.1-2.5-22.8-3.3-5.8-.5-10.8,1.4-15.3,5a60,60,0,0,0-25.3-.9A182.1,182.1,0,0,0,93,13.2a52.8,52.8,0,0,1-8.7,2.2,19.4,19.4,0,0,0-7.6,3.1,16.4,16.4,0,0,0-3.3,2.6,14.2,14.2,0,0,1-1.2,1.3,2.6,2.6,0,0,1-1.4.7c-10.4,3.3-20.3,9.6-27,18.4a36.7,36.7,0,0,0-3.6,5.7C39,49.7,38.4,52.7,37,55c-2.8,4.6-6,8.9-9,13.4l-3,5.2a35.6,35.6,0,0,1-6.1,6.9c-2.8,2.5-6.2,4.5-8.2,7.8S8.9,94,8.4,97.1a64.5,64.5,0,0,1-2.1,8.4,21.5,21.5,0,0,0-1.2,6.7,7.2,7.2,0,0,0,.7,2.8c.3.5.5.7.5,1.1a2,2,0,0,0-.1,2.2A30.3,30.3,0,0,1,4.3,125c-1.7,4.3-3.4,8.3-4,13a18.7,18.7,0,0,0,.2,7.8c.5,1.8,1.4,3.4,2,5.1,1.8,5.3,2.3,10.6,3,16.2a48.6,48.6,0,0,0,3.9,14,27.7,27.7,0,0,0,4.8,7.4c6.9,7.6,17.3,10.4,27.3,10.6,6.5.1,12.5-1.7,18.8-2.9l12-2.2c2.7-.6,5.4-1.2,8.2-1.6a40.6,40.6,0,0,0-2.5,8.4c-.6,3.4-1.2,7.2-.5,10.7,1.3,6.6,7.4,10.8,13.4,12.8a33.9,33.9,0,0,0,8.9,1.5c3,.2,4,2.3,5.5,4.6,2.7,4,6.9,6.2,10.8,9s5.3,4.5,8.3,5.8c5.3,2.4,11.7,1.5,17.4,1.1a77.8,77.8,0,0,0,21.8-4.6,28.5,28.5,0,0,1,7-2.2,50,50,0,0,1,11.6,0c1.3.1,2.9.2,3.4,1.1s1.4,3.1,2.1,4.6a33.7,33.7,0,0,0,3.9,6.6L202,266.6a38.3,38.3,0,0,0,5.1,6.2,46.1,46.1,0,0,0,12.4,7.5h.3a1.3,1.3,0,0,0,.8.3,77,77,0,0,0,16.5,4.3l1.1.4a1.3,1.3,0,0,0,1.2-.1,171.7,171.7,0,0,0,17.5,1.3c14.3.5,29.4-2.4,42.1-9.3,2-1.1,4-2.3,5.9-3.6h0a2,2,0,0,0,.9-.6,71.8,71.8,0,0,0,9.6-8.6,1.5,1.5,0,0,0,.9-1,77.4,77.4,0,0,0,10.8-15.6,14.9,14.9,0,0,1,2.8-3.4c1.5-1.5,3-3.1,4.6-4.6a60.3,60.3,0,0,1,4.5-4.2,61.8,61.8,0,0,0,5.3-3.6,1.2,1.2,0,0,0,.7-.5h0l2.7-1.5c3.1-2.1,6.2-4.3,9.1-6.6A75.9,75.9,0,0,0,369.7,211c4-5,7.8-10.3,10.3-16.2A55.6,55.6,0,0,0,382.1,157.3ZM334.8,78.7c1,1.5,2,3,3.1,4.4,2.6,3.4,5.9,5.8,9,8.7a40.1,40.1,0,0,1,7.2,9.7c1.7,3.3,2.2,7.2,3.8,10.5a17.5,17.5,0,0,0-8.4,3.1,32.2,32.2,0,0,0-1.6-8.2,48.7,48.7,0,0,0-5.3-10.1c-3.9-6.1-8-12.1-11.9-18.2Zm-65.2,47a51.6,51.6,0,0,1,15.2.1c.4,2.5.7,5.1.9,7.7s3.4,2,3.2,0c-.5-4.9-1.2-9.9-2-14.8s-1.1-8.7-4.1-11.7-6.5-3.3-10.1-3.6a83.1,83.1,0,0,0-13.2,0,119.9,119.9,0,0,0-1.4-17.9c-.3-2-3.3-1.1-3.1.9,1.3,9.6,2.5,19.6-.8,29-2.7,7.9-7.4,15.1-8.7,23.5a55.3,55.3,0,0,1-7.1-.4c-4.8-.6-9.9-1.1-14.2-3.4a18.7,18.7,0,0,1-8.4-10.5c.7-5.9-1.2-11.8.3-17.6.5-2,1.9-2.4,3.7-3.1s5.2-2,7.3-4,3.5-4.8,5-7.4a47.5,47.5,0,0,0,3.9-8.2,18.4,18.4,0,0,0,1-7.6c8.8-6.3,20-7,30.5-6.3l8.5.7c1.9.2,4.4.5,5.6,2.2s1.3,5.5,1.3,7.8a37.2,37.2,0,0,1-1.1,8.8c-.5,2,2.5,2.8,3,.9a40.4,40.4,0,0,0,.9-14.7c0-.3-.1-.6-.1-1,3.9,0,7.5-2.4,11.5-2.4a31.8,31.8,0,0,1,6.2.7c1.9.3,3.9.5,5.5,1.5s3.7,2.6,5.9,3.1h.5a33.6,33.6,0,0,1-.7,9.5,41.7,41.7,0,0,1-2.8,9.3c-2.5,5.6-7,9.4-12.6,11.7-1.9.7-1.1,3.8.8,3a31.5,31.5,0,0,0,9-5.5,29.6,29.6,0,0,1-2.4,5.5c-1,1.7,1.7,3.3,2.8,1.6a27.5,27.5,0,0,0,3.6-11.8,26.4,26.4,0,0,0,1.5-2.9,42.5,42.5,0,0,0,3.9-20.2h8.6c4,6.4,8.3,12.7,12.3,19a49.5,49.5,0,0,1,5.4,9.5,36.4,36.4,0,0,1,2,11.4v.2c-1.8,3.4-1.9,7.5-4.7,10.2s-6.9,2.6-10.4,4a24.2,24.2,0,0,0-10.7,8.3c-5,.4-10,.8-15.1.8s-7.7-.1-11.4.6a30.4,30.4,0,0,0-11.9,5.6c-1.7,1.4-4.2,1.6-6.4,1.7a21.1,21.1,0,0,1-7.9-1.2c-1.9-3.6-4.4-7.2-8.1-9.1s-5.1-1.3-7.9-1l-3.4.4c1.4-8.5,6.6-15.9,9.1-24.1a38.4,38.4,0,0,0,1.5-8.1,97.5,97.5,0,0,1,12.1-.1c3.1.1,6.8.5,9.1,2.8s2.9,7.4,3.5,10.8a20,20,0,0,0,.4,2.4,61.1,61.1,0,0,0-14.8,0C267.6,122.8,267.6,125.9,269.6,125.7Zm-39-64.4c-.2-1.5,4.9-2.5,5.8-2.8a60.8,60.8,0,0,1,7.4-1.6c4.7-.8,9.6-1.2,14.2-2.6a14.1,14.1,0,0,0,6.9-4.2c6.9,1.9,13.2,5.6,19,9.7,3,2.2,5.8,4.6,8.7,6.9l4.1,2.9a20.3,20.3,0,0,0-5.4.9c-2.2.7-4.5,1.9-6.8,1.4a6.9,6.9,0,0,0-1.1-1.3,9.6,9.6,0,0,0-5-2.3,89.9,89.9,0,0,0-14.6-1.2,59.6,59.6,0,0,0-14.6,1.1,37.4,37.4,0,0,0-12.8,5.1,20.5,20.5,0,0,0-2.4-5.5c-1-1.8-2.3-3.6-3.5-5.4A2,2,0,0,0,230.6,61.3Zm83.9-8.9,1.7.9a31.5,31.5,0,0,1,8.4,6.5c3.1,3.5,4.8,7.3,6.5,11.6.6,1.4,1.2,2.8,1.9,4.1l-4.8-.2h-2.5l-.3-.3c-1.4-1-2-2.9-2.7-4.4a39.1,39.1,0,0,0-2.4-5.1,40.4,40.4,0,0,0-6.7-8.7,36.7,36.7,0,0,0-5.2-4.4A20.8,20.8,0,0,0,314.5,52.4Zm-2.3,7.3a43.1,43.1,0,0,1,6.5,9.3,49.2,49.2,0,0,0,2.9,6.1h-.4c-1.9,0-4.2.4-6.1-.2s-3.7-2.4-5.7-3.3a35.6,35.6,0,0,0-6.8-1.7c-2.6-1.9-5.4-3.5-7.9-5.6s-6.1-4.9-9.2-7.2a74.1,74.1,0,0,0-15.8-8.8,53.6,53.6,0,0,1,8.9-1.6A39.1,39.1,0,0,1,290.9,48l1.4.5a27.7,27.7,0,0,0,4.1,1.2,25.5,25.5,0,0,1,8.2,3.8A41.2,41.2,0,0,1,312.2,59.7ZM193.4,5.9a18.8,18.8,0,0,1,12.1-2.6c4.5.7,9,2.4,13.4,3.6,2.3.6,4.6,1,6.9,1.5a230.5,230.5,0,0,1,26.7,7.5,49,49,0,0,1,10.2,5.2c1.7,1.1,3.3,2.4,4.9,3.6-9.8.4-19.5-1.9-28.5-5.5S219.2,9.9,208.2,8.6a33.1,33.1,0,0,0-14.7,1.3,14.3,14.3,0,0,0-.9-3.4Zm-1.8,9.5a6.6,6.6,0,0,0,1.4-2c9.7-4,20.6-1.2,30,2.4l8.3,3.4c1.4,5.2-3.1,9.5-7.3,11.7s-10.3,4.3-15,7.3c-8.3,5.2-17.7,13.9-17.2,24.6a18.9,18.9,0,0,0,.8,4c-4,3.8-8.1,7.5-12,11.4a35.6,35.6,0,0,0-8.3,13.3,41.1,41.1,0,0,0-1.5,4.6,22.9,22.9,0,0,1-4-10.7c-.2-2-3.4-2.1-3.2,0a26.4,26.4,0,0,0,6.3,14.6,52.5,52.5,0,0,0-1.2,9.7h-.1c-2,5-3,10.9-7,14.9-1.4,1.4.8,3.7,2.2,2.2a22.5,22.5,0,0,0,5.1-8.5c.1,1.1.2,2.2.4,3.3s3.3,1.2,3-.8a61.7,61.7,0,0,1-.6-10.5,1.3,1.3,0,0,0,.1-.6,61.2,61.2,0,0,1,3.5-17.4,34.6,34.6,0,0,1,8.3-12.7l10.3-9.7a12.6,12.6,0,0,0,5.2,5.3c1.8,1,3.4-1.7,1.6-2.7a10.4,10.4,0,0,1-4.7-5.4c-.1-.2-.1-.4-.3-.6a13,13,0,0,1-.7-4.8c0-5,2.9-9.6,6.2-13.2a51.8,51.8,0,0,1,13.3-9.9c4.7-2.4,10-3.7,14.2-6.9s6.2-6.7,6-11a100.7,100.7,0,0,0,18.8,6.1,58.4,58.4,0,0,0,17.7.8L273,29c3.8,2.7,7.9,4,12.1,5.7s6.7,5.1,9.9,7.8a29.3,29.3,0,0,0,8.5,5l3.8,1.5-4.5-1c-3.7-.9-7.4-2.1-11.1-3.1l-4.1-1.6-1.9-.9-.4-.2L284,40.7a89.5,89.5,0,0,1-6.2-8.6c-1.1-1.7-3.8-.1-2.7,1.6a98.2,98.2,0,0,0,6.5,9l.7.8h-4.6a67.1,67.1,0,0,0-11,2.3c.4-4-2.5-7.2-5.3-9.7s-3.8.9-2.3,2.2,5.5,5.5,3.9,8.7l-.3.6-.7,1c-3,3.1-8.4,3.5-12.5,4.1a136.3,136.3,0,0,0-13.9,2.7c-2.4.6-5.7,1.5-7.2,3.5-1.6-3-2.5-6.2-1.5-9.6.6-1.9-2.4-2.8-3-.8-1.8,5.8,1.2,11.4,4.4,16.1a51.4,51.4,0,0,1,4.5,7.5,14.5,14.5,0,0,1,.8,9.2,31.1,31.1,0,0,1-3.7,8.6c-1.4,2.6-2.9,5.5-5,7.6s-4.9,2.8-7.5,3.8a7.6,7.6,0,0,0-2.6,1.6,13.6,13.6,0,0,0-3.2-3.6c-1.6-1.3-3.8.9-2.2,2.2s3.4,3.1,3.4,5.6c-1.2,5.2.5,10.6,0,15.9a50.8,50.8,0,0,0-28.6,6,48,48,0,0,0-12,9.4c-.6.5-.4.4-.9.6l-1.7.3-3.6.6-8.4,1.7-1.8.5a12.5,12.5,0,0,0,1.7-4.9,14,14,0,0,0-2.5-9.7c-1.2-1.7-3.9-.1-2.7,1.6a11.2,11.2,0,0,1,2.1,7.7,13,13,0,0,1-3.3,6.5l-6.9,2a23.4,23.4,0,0,0-2.5-7.6,19.1,19.1,0,0,0-3.1-3.8c-.9-.9-2.1-1.6-3-2.6-4.6-4.6-2.2-12.4-.3-17.7a46.8,46.8,0,0,1,4-7.3,36.7,36.7,0,0,0,3.8-8.9,51.6,51.6,0,0,0,1-6.7,48.9,48.9,0,0,1,2.4-9.1,73.7,73.7,0,0,1,7.9-15.9c4.2-2.6,8.9-2.1,13.6-2.2,2,0,2-3.2,0-3.1-3.6,0-7.1-.1-10.5.7,4.7-6.7,9.8-13.2,15-19.4,2.7-3.2,5.4-6.4,8.2-9.5l2.4-2.8c.1-.1.2-.2.2-.3a28.8,28.8,0,0,1,8-2.6,15,15,0,0,1,7.8,1.5c1.9.8,3.5-1.9,1.6-2.7a19.1,19.1,0,0,0-9.4-1.9,23.5,23.5,0,0,0-7.2,2,13.6,13.6,0,0,1,1-3.6,10.1,10.1,0,0,1,2.8-3.7C189,17.2,190.5,16.5,191.6,15.4Zm-68.7,96.9V112a7.1,7.1,0,0,1,1.6-5.2c1.4-1.5-.9-3.7-2.2-2.3a13.7,13.7,0,0,0-1.5,2.1c-.8-1.4-1.8-2.9-2.8-4.3s-3.9-.1-2.7,1.6,3.2,4.1,4,6.5a15.8,15.8,0,0,1,.3,7.5c-.4,2.9-1.1,5.9-1.8,8.8s-1.5,5.3-1.6,8c-.4,7.6,6.6,12.9,13.7,15.1l-5.3,2.1c-4.7,2-9.3,4.2-13.9,6.6-6.2-.7-12.5,2.5-18.7,1.3-1.7-.3-2.8-1.4-4-2.5a55.6,55.6,0,0,0-5-4.7c-3.7-2.8-8.1-4.5-12.2-6.5s-7.6-4.1-10-7.7-4-9.9-.3-13.2c1.5-1.4,3.2-2.4,4.4-4.2a18.3,18.3,0,0,0,2.5-5.3c.6-1.5,1.3-4.9,3.1-5.3s2.6,0,3.9-.1h4.2a25.6,25.6,0,0,1,7.3.4,8.4,8.4,0,0,1,5.6,4.6c2.8,4.9,3.6,10.8,3.1,16.4-.2,2,3,2,3.2,0a33,33,0,0,0-2.6-16.1h0c.6-4.1,2.6-8.1,4.3-11.7a27.3,27.3,0,0,1,6.6-9.1c3.2-2.6,7-4.3,10.6-6.2l5.8-3.1c1.7-.8,3.6-1.7,5.5-1.4l.9.5c4.1,2.2,8.6,1,12.9,1.9l-.3,1.5c-.5,2.1-.6,4.1-.9,6.2a24.3,24.3,0,0,1-1.9,6.5,70.6,70.6,0,0,1-4,7.2,28.7,28.7,0,0,0-3,6.7c-1.8,5.7-3.1,12.6.6,17.8,1.5,2.2,3.9,3.4,5.5,5.4a18,18,0,0,1,3.4,8.5.1.1,0,0,0-.1.1,46.1,46.1,0,0,0-5.3,1.5h-.1a21.7,21.7,0,0,1-11.7-4.5,12.3,12.3,0,0,1-4.2-5.4c-1-2.5-.2-5.2.4-7.7,1.2-5,2.7-10.2,2.8-15.4A20.1,20.1,0,0,0,122.9,112.3ZM35.3,106a7.6,7.6,0,0,1,.6-2.5c1.3-3.5,4.6-4.7,8-5.2a6,6,0,0,0,.8,3.5c1,1.7,3.8.1,2.7-1.6s-.2-2.6.1-3.8a18.7,18.7,0,0,1,1.3-4c.8-1.4,1.7-3.3,3.1-4.3a17.4,17.4,0,0,0,9.5-1.5c0,.1.1.3.1.4A16,16,0,0,0,66,92.5c1.6,1.3,3.2-1.5,1.6-2.7a12.7,12.7,0,0,1-3.7-5.1c-.1-.2-.1-.4-.2-.5a.4.4,0,0,0-.1-.3c-.4-1.6-.3-3.3-.9-4.9s-2.4-3.6-3-5.7-.1-4.9.4-7.2-2.6-2.9-3-.9-1.2,5.3-.7,7.9,2.6,4.6,3.4,7.2a20.3,20.3,0,0,1,.5,3.3c-2.9,1.9-7.7,1.7-10.9,1.1l-8.1-2a52.7,52.7,0,0,0-.4-5.6c-.1-2.1-.3-4.4.7-6.2s3.7-3,5.7-3.9a61.7,61.7,0,0,0,6.5-2.9,16.8,16.8,0,0,0,5.3-5.3,24.1,24.1,0,0,1,12.1,2.6,9.5,9.5,0,0,1,2.4,1.4h.2a7.5,7.5,0,0,1,.5,2.6A7.3,7.3,0,0,0,76.6,70,25.8,25.8,0,0,0,94,77.1a20,20,0,0,0-2.6,9.3c.1,2,3.2,2,3.2,0-.1-3.6,1.5-6.8,3.2-9.8a1.6,1.6,0,0,0,.4-.7l1.2-2.1c1.9-3.5,3.8-6.4,7.7-8,1.8-.8.2-3.5-1.6-2.7-4.3,1.8-6.6,5.2-8.8,9.1l-1,1.7A18.7,18.7,0,0,1,85.3,72a29.2,29.2,0,0,1-4.8-2.9c-1.7-1.2-2.9-2.3-3.2-4.5a9.5,9.5,0,0,0-.7-2.9c.4-5.4,6.8-8.2,11.2-9.6s11-4.1,16.7-5.5c11.1-2.8,22.8-2.3,34.2-2.1l5.1.2a13.7,13.7,0,0,1-1.3,2c-1.3,1.5.9,3.7,2.2,2.2a15.1,15.1,0,0,0,1.8-2.6,7,7,0,0,1,1.3-1.7,13.3,13.3,0,0,0,7-2.1c1.7-1.1.1-3.8-1.6-2.7a10.3,10.3,0,0,1-5.5,1.6.9.9,0,0,0-.7,0h-9.1c-6.1-.1-12.1-.2-18.2.1a79.4,79.4,0,0,0-17.4,2.5c-3,.8-5.9,2-8.8,3s-5.8,1.8-8.6,2.9c-4.5,1.7-9.4,4.7-11,9.4l-3.2-1.5a18.6,18.6,0,0,0-3.1-1,62.2,62.2,0,0,1,8.2-9.5,22.5,22.5,0,0,1,6.1-4.1A50.4,50.4,0,0,1,89.5,41a32.9,32.9,0,0,0,7.7-2.4c2.3-1.2,4.3-2.7,6.5-3.9a16.1,16.1,0,0,1,7.8-1.9,17.4,17.4,0,0,0,7.7-1.8,48,48,0,0,0,4.8-3,52.4,52.4,0,0,1,11.2.2,23.6,23.6,0,0,1,5.3,1c1.5.5,2.8,1.3,4.4,1.3h.8c5.2-1.9,10.8-1.7,16.3-.9a20.9,20.9,0,0,1,7.6,2.3c1.6.9,2.7,2.6,3.9,4-4.8,5.5-9.4,11.2-13.8,17-2.6,3.5-5.2,7-7.5,10.7-3.9,6.2-7.5,12.8-9.6,19.9-3.8-.7-7.9.3-11.5-1.3l-.7-.3a2.3,2.3,0,0,0-.7-.7c-.9-1-1-2.3-1.1-3.8a35.4,35.4,0,0,0-.3-6.5c-.6-3.8-3.3-6.1-5.8-8.7s-2.3-2.5-2.4-4.2,1.5-4.5,2.8-6.3-1.6-3.2-2.7-1.6c-2.6,3.7-4.6,8-1.8,12.1s6.5,5.5,7,10.2c.2,2.6-.2,5.9.6,8.6-3.3.5-6.4,2.5-9.3,4s-8.6,4.2-12.4,7.2a27.7,27.7,0,0,0-7.6,10.3,66.1,66.1,0,0,0-3.8,9.2,17,17,0,0,0-1.9-1.9,13.6,13.6,0,0,0-6.6-2.4,52.1,52.1,0,0,0-7.9-.1H72.3c-1.3.1-2.7-.1-3.8.5s-2.8,3.7-3.5,5.6a22,22,0,0,1-3,6.4c-1.4,1.8-3.7,2.8-5.1,4.7A23.3,23.3,0,0,1,38,115.1a14.8,14.8,0,0,1-2.7-8.5ZM149.4,8.6a37.1,37.1,0,0,0,3.2-2.3,16.3,16.3,0,0,1,10.9-2.5c5.3.5,10.4,1.7,15.6,2.5l7.9.8,2.6.4a8.6,8.6,0,0,1,.7,2.1c-12.6-6.4-27.9-.5-41,.9l-2.4.2ZM43.3,48.1c4.1-7.7,10.9-13.5,18.5-17.7a52.3,52.3,0,0,1,7.6-3.5l2.9-1a3.9,3.9,0,0,0,2.5-1.6c3.1-3.6,7.1-5.3,11.7-6.1s10.9-3.4,16.4-5.2c8.3-2.6,17-5.2,25.7-6a44.2,44.2,0,0,1,10.9.2,50.3,50.3,0,0,1,5.6.9l-3.4,2.7-4.4-.2c-3.7-.1-7.4,0-10.9,1.4s-5.7,3-8.6,4.2l-1.9.7c.3-1.6,1.1-3.2,2.7-3.6s1.1-3.4-.9-3-4.9,4.1-5,7.2a41.9,41.9,0,0,1-5,.3c-3.5-.1-7.3-.3-10.7.9a11.8,11.8,0,0,0-4.2,2.4c-1.4,1.1-2.6,2.6-4.5,3.2a1.6,1.6,0,0,0,.9,3c3-.9,4.7-3.6,7.4-5s6.1-1.4,9.2-1.4a49.4,49.4,0,0,0,9.4-.5c3.2-.7,6-2.4,8.9-3.9a22.2,22.2,0,0,1,9.8-2.8c2.5-.1,5.1.1,7.7.2a.9.9,0,0,0,.9.1h2.6c7.9-.3,15.5-2.4,23.3-3.5s14.9-1.2,21.3,2.3l-.3.4c-1.5,1.5-3.5,2.3-4.9,3.9a16.4,16.4,0,0,0-3.7,10.2l-5.3,6.1a18,18,0,0,0-4.3-4.4c-2.5-1.5-5.5-2-8.4-2.5-6-.9-12.1-1.3-17.9.8-1.5,0-2.9-1-4.4-1.4a30.9,30.9,0,0,0-5.3-.9l-4.5-.3a46.1,46.1,0,0,1,5.3-1.5c2-.4,1.1-3.4-.9-3-5.7,1.2-10.5,3.8-15.4,6.9a15.2,15.2,0,0,1-7.9,2.6,20.1,20.1,0,0,0-8.1,1.5,66.1,66.1,0,0,0-6.8,3.9A24.9,24.9,0,0,1,89,37.9c-5.2,1.1-9.9,2.5-14.1,5.9s-7.5,7.8-10.6,12.1a21.9,21.9,0,0,0-3.6-.3c.2-.6.5-1.1.7-1.7.7-2.2,1.2-4.4,1.7-6.7s.3-2.2.5-3.3.1-.4.1-.6a12.5,12.5,0,0,1,.8-3.2c1.1-2.9,4.5-4.2,7.2-5.4a50.2,50.2,0,0,1,6.5-2.3,1,1,0,0,0,.9-.1l1.7-.6a1.6,1.6,0,0,0-.8-3,64.5,64.5,0,0,0-8.5,2.7,28.8,28.8,0,0,0-7.3,4,10.1,10.1,0,0,0-3.4,6.1l-8-.5c-2-.1-2,3,0,3.2l7.4.4c-.3,1.7-.5,3.4-.8,4.9-1.2,4.6-3,9.4-7.2,11.9s-6,2.4-8.8,3.9c-.5-3.5-2-6.8-2.9-10.3A45.3,45.3,0,0,1,43.3,48.1ZM26.5,76.8c1.3-1.9,2.4-3.8,3.6-5.8,2.3-3.6,4.9-7.1,7.2-10.7l1.1-1.5c.9,2.8,1.9,5.6,1.9,8.6l-.9,1.2c-2.8,3.9-1.5,9.1-1.2,13.7H36.5a32.1,32.1,0,0,0-6.1.9c-1.4.3-2.9.5-4.3.9A19.2,19.2,0,0,0,26.5,76.8Zm-2,11.4a5.1,5.1,0,0,1,1.6-.9c1.7-.8,3.8-.9,5.7-1.3a23.9,23.9,0,0,1,6.5-.6c3.3.3,6.5,1.5,9.7,2.2a21.2,21.2,0,0,0-2.3,4.1c-.4,1-.9,2.2-1.3,3.4-4.4.5-8.6,1.8-10.9,6a13.2,13.2,0,0,0-1.3,4.4c-1.7,1.5-4.2,1.8-6.5,2s-5.6.3-8.4.7c.9-3.5.7-7.2,1.7-10.9a18.2,18.2,0,0,1,4.7-8.4A1.3,1.3,0,0,0,24.5,88.2ZM8.4,110.1c.3-2.2,1.2-4.3,1.7-6.5s1.3-6.5,1.9-9.8a11,11,0,0,1,3.7-6.5c2.6-2.4,5.4-4.5,7.8-7a16.1,16.1,0,0,1-1.5,6,20.9,20.9,0,0,0-5.1,7.5,24.6,24.6,0,0,0-1.7,7.1,24.5,24.5,0,0,1-1.6,8.4,9.4,9.4,0,0,0-2.4,1.8c-.8.8-1.5,1.7-2.3,2.6h0A5.2,5.2,0,0,1,8.4,110.1ZM5.3,149.4l-.6-1.5a13.3,13.3,0,0,1-1.3-3.5,21.6,21.6,0,0,1,.2-7.6,56.3,56.3,0,0,1,3.5-10.5,28.1,28.1,0,0,0,2-7l.3-1.2,1-1.2c1.1-1.3,2.1-2.7,3.3-3.9a5.7,5.7,0,0,1,1.6-1.1l.4-.2c2.8-1.1,6.4-.8,9.1-1s5.3-.4,7.5-1.6a20,20,0,0,0,1.7,5.4,24.5,24.5,0,0,0-14.5,10.9,13.4,13.4,0,0,0-2,6.9A11.9,11.9,0,0,0,8,139.1C6.3,142.3,5.8,145.9,5.3,149.4Zm29.1,46-2.2-.5a29.4,29.4,0,0,1-15.8-8.6c-5.9-6.8-7.4-15.7-8.3-24.4a55.8,55.8,0,0,0-.9-5.9v-.2c1.8-6.7,1.4-20,10.8-20.4l.2.5c.7,2,1.4,4,1.9,6s.8,3.8-.4,5.3,1.6,3.2,2.8,1.6,1-6.4.2-9.3-1.3-3.7-1.8-5.5a8.3,8.3,0,0,1,.6-5.8c2.7-5.6,8.2-9.4,14.2-10.9,4.4,6.1,12.3,9.9,19.9,10.3a6.1,6.1,0,0,0-.3,1.3c-3.2.9-6.7,2.2-8,5.6a26.4,26.4,0,0,0-.7,3,6.1,6.1,0,0,1-3.3-1,5.8,5.8,0,0,1-2.1-4.8c0-2-3.2-2-3.2,0a9.4,9.4,0,0,0,2.7,6.6c1.6,1.6,3.5,2,5.5,2.3a38.2,38.2,0,0,0-.5,6.8,18.7,18.7,0,0,0,4.7,12.1c2.8,3.4,6.9,6.7,6.3,11.6-.2,2,3,2,3.2,0,.5-4-1.8-7.6-4.4-10.5s-5.6-6.1-6.4-10.5,0-8.2.6-12.1c.3-1.9.7-3.5,2.5-4.5a8.5,8.5,0,0,1,3.1-1.3A19.1,19.1,0,0,0,62,144.3c3.9,3.2,8.5,5,12.9,7.2a36.2,36.2,0,0,1,6.8,4.1c2.1,1.7,3.8,3.8,5.9,5.5s7.3,2.2,11,1.7l5.8-.9a30.9,30.9,0,0,0-6,4.8c-2.2,2.2-3.8,5-5.8,7.4l-.2.3h-.1c-7.6,7.1-17.4,9.8-27.6,10.4a93,93,0,0,0-10.6,1.3c.1-5-8.6-7.8-12.1-9.7s-5.6-3.5-7.3-6.5a59.5,59.5,0,0,1-4.6-10.7c-.7-1.9-3.7-1.1-3.1.8a72.5,72.5,0,0,0,4.5,10.8,4.7,4.7,0,0,0-4.1,2.4c-.8,1.9,1.9,3.5,2.7,1.6s2.5-1,3.7-.7a18.6,18.6,0,0,0,2.9,2.7,41.2,41.2,0,0,0,7.7,4.3c1.8.9,7.7,3,6.3,5.9l-2.2.7a64.2,64.2,0,0,0-13.9,7.5Zm29.3-3.1c-4.4.8-8.7,1.8-13,2.8a36.8,36.8,0,0,1-11.5.8,52.9,52.9,0,0,1,11.7-5.7c5.5-1.8,11.1-1.9,16.8-2.4a49.2,49.2,0,0,0,18.4-5.2,71.4,71.4,0,0,0-4.1,6.5C75.9,189.8,69.8,191.3,63.7,192.3Zm122.8,44.9h-.3a26.7,26.7,0,0,0-6.3-1c-4.4-.2-9.3-.2-13.6,1.2s-9,3.3-13.7,4.3a75.7,75.7,0,0,1-13.3,1.7c-4.1.2-8.6.8-12.5-.5a12.5,12.5,0,0,1-4-2.4l-10.5-7.5a15.5,15.5,0,0,1-5.2-5.6c-1.1-1.7-2.2-3.2-4.1-4s-3-.5-4.6-.7a27.5,27.5,0,0,1-12.2-4,12.5,12.5,0,0,1-5.8-12.1,46.7,46.7,0,0,1,3.9-15.2,92.3,92.3,0,0,1,9.4-13.7l.7-.8h.2c.1-.2.3-.4.3-.6,1.5-1.9,2.8-3.8,4.3-5.6a30.2,30.2,0,0,1,9.1-7.2l3-1.6a1.9,1.9,0,0,0,.9-.5c3.3-1.7,6.7-3.3,10-4.8a135,135,0,0,1,13.7-5.5l.6-.2,2.3-.6,4.3-1.2.8-.2,8.2-2.4a1.1,1.1,0,0,0,.7-.2l1.5-.3c5.3-1.4,10.7-2.4,16.2-3.4.9-.2,2.2-.2,2.9-.7a21.8,21.8,0,0,0,2.1-2.2,45.5,45.5,0,0,1,5.8-4.9,48.3,48.3,0,0,1,31.8-8.4,20.8,20.8,0,0,0,9.2,11.4,25.7,25.7,0,0,0,8.6,2.9,70.9,70.9,0,0,0,10.3,1.4,54.1,54.1,0,0,0,9-.1,26.5,26.5,0,0,1,5.6-.5,8.4,8.4,0,0,1,4.7,2.3,15,15,0,0,1,2.7,2.9l1.3,2a9,9,0,0,0,1.7,2.6,13.9,13.9,0,0,0,4.5,1.4,30.8,30.8,0,0,0,5.3.4,31.8,31.8,0,0,0,4.3-.6l1.7-.5a8.9,8.9,0,0,0,2.5-1.4,24.6,24.6,0,0,1,13.5-5.3c6.1-.4,12.2,0,18.3-.5l2.1-.2c-4.9,8.2-3.6,18.6-5.3,27.9a27.4,27.4,0,0,1-6.6,12.6,41.7,41.7,0,0,1-10.8,9.3,15.1,15.1,0,0,1-7.5,2.1,25.2,25.2,0,0,1-8.1-1.9c-2-.6-2.8,2.4-.9,3.1,4.7,1.6,9.6,2.7,14.4,1.1l2.2-.9c-1.6,4.5-6,8.2-9.1,11.4s-9,8.6-12.6,13.7c-1.2,1.7,1.6,3.3,2.7,1.6,3.5-5,8.2-9.1,12.5-13.5,4.7-.2,9.5-1.1,14.3-.9,2.2.1,4.7.3,6.6,1.5a31.3,31.3,0,0,1,4.2,3.9l-.3.5a81.3,81.3,0,0,1-8.7,10.7h-.6c-2.3.7-4.5,2-6.8,2.6l-2.3.5-.7.2a57,57,0,0,1-11.7.5c-2.1-.1-4.2-.2-6.3-.5h-.6c-8.4-1-16.8-2.5-25.4-1-5,1-9.9,2.8-14.8,4.3a97.6,97.6,0,0,1-15.1,3.6,110.7,110.7,0,0,1-22.3.7,8,8,0,0,0,4.5-3c1.1-1.8-1.6-3.3-2.7-1.6a5.3,5.3,0,0,1-2.3,1.4,32.2,32.2,0,0,1-4.4,1.4A37.2,37.2,0,0,1,186.5,237.2Zm128.3-35.9a8.6,8.6,0,0,0,2.8-.4,20,20,0,0,1,.4,2.4,15.9,15.9,0,0,1-2,9.4,25.8,25.8,0,0,0-3.8-3.6,15,15,0,0,0-7.1-2.1c-4.2-.4-8.4.2-12.6.6,3.2-3.5,6.4-7.2,6.9-11.9a46.5,46.5,0,0,0,6.3-5.3,50.3,50.3,0,0,0,6-7,22.3,22.3,0,0,0,1.4,6.2c1,2.8,2.5,5.5,3.5,8.4l-1.8.2C312.8,198.2,312.8,201.4,314.8,201.3ZM189.4,241.2l-.5-1.1h.2c9.4.7,18.9,1.4,28.4.4a90.3,90.3,0,0,0,14.5-2.7c5-1.3,9.9-3.2,14.9-4.6a50.1,50.1,0,0,1,15.9-1.6l2.3.2-5.1.9a135.3,135.3,0,0,0-16.8,3.5c-10.8,3.1-21.2,7.7-32.3,9.8-6.4,1.1-12.9,1.4-19.2-.1A34.2,34.2,0,0,1,189.4,241.2Zm4.5,8.3c10.1,1.6,20.4-.6,30.1-3.6s21.7-7.8,33.2-9.6c6.4-1,12.8-2.5,19.2-3.2h.1c-8.4,1.9-16.8,4-25.1,6.5-5.9,1.8-11.7,4-17.4,6.2a64.4,64.4,0,0,1-18.3,4.9,91.1,91.1,0,0,1-21.5-.6Zm10.2,7.4h-.8l-5.1-1-1.5-2.2c11.5,1.3,23.3.8,34.3-3.3,6-2.1,11.8-4.7,17.9-6.6s12.3-3.7,18.5-5.2l21-4.8h.3c-9.9,5.3-20.8,8.7-31.3,12.7l-8.9,3.5a1.2,1.2,0,0,0-1,.3c-2.7,1-5.5,2-8.2,2.8h-.5l-6.5,1.6a1.1,1.1,0,0,0-1.1.3l-1.7.4a47.3,47.3,0,0,1-9.1,1.8h-1l-3,.2c-.2-.1-.3,0-.5,0a62.6,62.6,0,0,1-7.5-.1,1,1,0,0,0-.9-.1Zm106.1-15.3a150.5,150.5,0,0,1-17.8.6,38.6,38.6,0,0,1-9-.7l-2.6-.6,4.6-2a104.7,104.7,0,0,0,31.1,1.6l1.8-.2A54.7,54.7,0,0,1,310.2,241.6Zm1.5,3a50.8,50.8,0,0,1-10,2.6,119.3,119.3,0,0,1-18.9.4,118.8,118.8,0,0,1-15.8-1.3l8.3-3.1c2.9.1,5.7,1.2,8.6,1.6a52,52,0,0,0,8.8.5,146.1,146.1,0,0,0,18.7-.6Zm-63.2,8.5c10,3.2,20.6,3.2,31,2.8,8-.2,16.1-.4,24.1-1.4a69.5,69.5,0,0,1-9.3,1.7,188.1,188.1,0,0,1-35.2.4,99.6,99.6,0,0,1-14.2-2.2l1.4-.5Zm-28.7,7.5-.2-.2h.1C219.7,260.5,219.7,260.5,219.8,260.6Zm-11,2h-.2l-1.6-2.3.3.3c.1.1.2.2.2.3l.6.6.3.3c0,.1.1.1.1.2s.1.1.1.2h.1c0,.1.1.1.1.2h0Zm5.2,3.3a14.9,14.9,0,0,1-2-2.9l-.6-1.8c1.3,2.2,2.7,4.4,4.2,6.5Zm7.3,11.7c-1.7-1.3-2.2-4-3-5.9l-.9-1.6a49.4,49.4,0,0,0,9.9,9.5A46.9,46.9,0,0,1,221.3,277.6Zm36.8,5.9a157.4,157.4,0,0,1-20.5-1.7c-9.9-4-17.5-11.9-22.8-21.1h.7c6.5,7,14.1,13.2,23.2,16.8a58.4,58.4,0,0,0,16.1,3.3c5.5.5,11,.7,16.5.7h7.2A87.7,87.7,0,0,1,258.1,283.5Zm32.3-5.6a266.1,266.1,0,0,1-32.2,0c-5.4-.4-10.9-.9-16.1-2.5a49.2,49.2,0,0,1-9.3-4.3,61.8,61.8,0,0,0,14.2,3.7c6.1.9,12.2,1.6,18.3,2.2a134.1,134.1,0,0,0,19,.6,74.7,74.7,0,0,0,9.5-1.2Zm13-7.1a82.4,82.4,0,0,1-16.4,3.4,98.4,98.4,0,0,1-18-.1c-5.9-.4-11.9-1.1-17.8-1.9s-10.7-1.5-15.7-3.4a27.7,27.7,0,0,1-12.2-8.8h1c3.2,3.7,8,5.6,12.7,6.8a138.6,138.6,0,0,0,19.3,3.1,159.1,159.1,0,0,0,39-.3,102.6,102.6,0,0,0,13.4-2.7A52.5,52.5,0,0,1,303.4,270.8Zm11.5-10.2-1,1.1c-10.8,4.1-22.4,5.6-33.8,5.8a183.2,183.2,0,0,1-38.4-3c-4.8-1-10-2.1-13.7-5.3l4.3-1.2c12.4,4.9,25.8,6.5,39.1,6.8a201.7,201.7,0,0,0,20.6-.5,84.4,84.4,0,0,0,19.7-4.7,23.5,23.5,0,0,0,6.7-3.4A48.2,48.2,0,0,1,314.9,260.6Zm-2.8-4.5a91.8,91.8,0,0,1-8.9,2.8,84.5,84.5,0,0,1-10,2.1,163.1,163.1,0,0,1-19.8.7,146.5,146.5,0,0,1-19.8-1.4,97.7,97.7,0,0,1-16-3.7l1.7-.4c11.4,3.3,23.2,4.1,35,4.1s24.2-.2,35.3-4.4c3-1.2,6-2.5,8.9-3.9A22.6,22.6,0,0,1,312.1,256.1Zm17-15.2a36.4,36.4,0,0,0-3.4,3.4,1.4,1.4,0,0,0-.9.5,1.8,1.8,0,0,0-.5.7c-8.7,4.2-18.3,5.8-27.9,6.5-5,.4-9.9.5-14.9.7s-10.2.4-15.2.1a60.5,60.5,0,0,1-12.7-1.6l2.1-.8,5.5-2c12.4,2.7,25.5,3,38,2.2,5.8-.4,11.2-2.2,16.6-4.2a129,129,0,0,0,13.3-5.6Zm-13.2-3.5a96.9,96.9,0,0,1-25.8-.9c2.1-1.1,4.1-2.3,6.1-3.5a26.4,26.4,0,0,0,4.8-1.4c2.5-1,4.8-2.2,7.4-2.2s5.8.5,8.6.7l8.7.7,11.9.9A74,74,0,0,1,315.9,237.4Zm51.4-56.6c-.6,5.2,2.2,12-3.1,15.5-1.7,1.1-.1,3.8,1.6,2.7a10,10,0,0,0,4.7-7.5v-.3c.2-.7.9-.7,1.5-.9a9.2,9.2,0,0,0,2.3-.9l1.1-.5c-.3,3.5-1,7.1-1.4,10.7a79.7,79.7,0,0,1-5.7,8.2c-5.5,7.1-12.5,12.8-19.9,17.9-1.6,1.1-3.3,2.3-5,3.3-5.2-.3-10.3-.8-15.4-1.2s-10.5-.6-15.8-1.2l-2.3-.2a88.1,88.1,0,0,0,6.6-8.5c2.6-3.8,4.7-7.8,4.8-12.5a21,21,0,0,0-.8-5.6,17.5,17.5,0,0,0,2.9-1.8c4.1,1.8,8.8,1,13.2.7,2-.1,2-3.3,0-3.1s-7.5,1-10.9-.1a12.6,12.6,0,0,0,1.9-6.3c.1-2-3.1-2-3.2,0a8.4,8.4,0,0,1-2.7,6.1,10.7,10.7,0,0,1-2.2,1.5c-.7-1.8-1.6-3.7-2.4-5.5-2.3-5.3-3.2-10.7-1.4-16.4v-.3c1.1-4.2,1.2-8.8,1.5-13.2.5-6.2,1.2-12.9,5.5-17.8v-.2c.3-.2.4-.6.7-.8a22.3,22.3,0,0,1,7.8-6.5c2.7-1.3,5.6-1.5,8.4-2.5a12.5,12.5,0,0,0,6.9-6.3c1-2.2,1.3-4.6,2.3-6.6,4,2.8,6.1,7.4,8.1,11.9a68.2,68.2,0,0,0,3.5,7.2c0,5.2-2.2,11.3-7,13.9-1.2.7-2.5,1-3.5,2l-1.3,1.8-3.3-2c-1.1-.6-3.4-1.7-3.6-3.1s-3.4-2.1-3.1,0,1.5,3.5,3.3,4.7,3.9,2.4,5.8,3.5c-.6,3.7-1.1,7.4-1.5,11.2s-.7,6.5-1,9.7a23.5,23.5,0,0,0-7.9-3.2c-1.9-.5-2.8,2.5-.8,3A19.6,19.6,0,0,1,346,186a19.5,19.5,0,0,0,2.4,3.9c1.8,2.5,3.9,5,4.2,8.2s-1.1,7.2-2.6,10.4-3,7.4-6.5,9.2-7.1,1.4-10.6,1.3c-2-.1-2,3,0,3.1s6.9.2,10.1-.9a12.9,12.9,0,0,0,7.3-6.1,52.4,52.4,0,0,0,4.4-10c1.1-3.5,1.6-7.3.2-10.7-.1-.2-.1-.4-.2-.5,1.9-3.5,5.4-5.9,7.4-9.4a19.7,19.7,0,0,0,2.2-12.8c-.3-2-3.3-1.2-3,.8a16.1,16.1,0,0,1-2.7,11.7c-1.7,2.4-4,4.3-5.7,6.6-1-1.4-2.1-2.8-3-4.2a12.8,12.8,0,0,1-1.1-2v-.2a4,4,0,0,1-.3-1.5c0-1.6.5-3.4.6-5.1.4-4.3.8-8.6,1.4-12.8.3-1.8.3-3.9,1-5.6s2.3-2.1,3.8-3c4.6-2.4,7.3-7.4,8.2-12.5.7,1,1.4,1.9,2.1,3,3.4,5.5,1.5,12,3.3,17.9a42.5,42.5,0,0,0,3.6,7.8,26.8,26.8,0,0,1,2.9,8.8c.1,1.1.2,2.2.2,3.3s-3,2.1-4.7,2.7h-.2a37.8,37.8,0,0,1-.2-6.7C370.7,178.8,367.5,178.8,367.3,180.8Zm12.6,3.4c-.4,1.8-.9,3.7-1.4,5.5.1-1.4.2-2.8.2-4.2a1.4,1.4,0,0,0,0-.9,8.6,8.6,0,0,1-.1-1.6,30,30,0,0,0-2.1-9.2c-1.2-2.7-2.9-5.3-4-8.1-2.5-6-.5-12.8-3.4-18.8-1.2-2.6-3.2-4.6-4.8-7a51,51,0,0,1-4-7.7c-2.3-5.2-4.7-10.7-9.4-14.1,2.4-2.2,5.6-2.9,8.8-3.1,2.5,3,6.4,4.1,8.8,7.2s3.2,7,4.2,10.6c2.3,8.4,3.7,17,6.3,25.4A48.8,48.8,0,0,1,379.9,184.2Zm-59.1-60.5c-.9,1.3-1.7,2.7-2.7,3.9a9.2,9.2,0,0,1-7,4.1c-2.1.1-2.1-3.1,0-3.1s4.7-2.9,6.1-5.1a37.5,37.5,0,0,1,5.1-6.1,13.5,13.5,0,0,0,3.9-7.2c.6-3,1-6.2,1.5-9.3s3.4-1.2,3,.8a95.5,95.5,0,0,1-1.8,10.7,16.3,16.3,0,0,1-4.7,7.6A24.1,24.1,0,0,0,320.8,123.7Zm-79.1-3.8c1.2,1.6-1.5,3.2-2.7,1.6a14.6,14.6,0,0,0-3-3.1c.1,2.5-.3,5-.4,7.6s-3.3,2-3.2,0c.2-3.8,1.2-7.8-.1-11.5a16.5,16.5,0,0,0-6.4-8.3c-1.8-1-.2-3.8,1.5-2.7a19.8,19.8,0,0,1,7.6,9.3l.6,1.8C238.1,115.6,240.1,117.8,241.7,119.9Zm-41.6,90.6c-12.4-.7-24.7-.9-37.1-.5-.9,2.9-1.5,6-2.4,8.6a15.9,15.9,0,0,1-2.1,4.6,8.5,8.5,0,0,0,7,3.8c2,.1,2,3.2,0,3.2a11.8,11.8,0,0,1-9.3-4.8l-.6.4a12.6,12.6,0,0,1-4.7.8,6.4,6.4,0,0,0-2.8.4,3.4,3.4,0,0,1-.7,1.1,16.1,16.1,0,0,1-3.1,1.9c-.7.5-1.7.9-2.5,1.4a1.2,1.2,0,0,1-.4,1c-2,2.1-4.4-1.2-2.2-2.9a37.8,37.8,0,0,1,4.3-2.6l1.1-.6c0-.3.2-.5.4-.8l.2-.2a4.4,4.4,0,0,0-1-1.6c-3.5-4.3-8.3-7.3-13.2-9.7s-9.4-4.2-14-6.4-9-5-11-9.8l-.3-.6c-2.5-3-3.9-8.3-8.5-8.6-2-.1-2-3.3,0-3.1a9.7,9.7,0,0,1,6.7,3.4,11.8,11.8,0,0,1,1.3,1.8,14.9,14.9,0,0,1,3.3-6.5c3.5-4.1,8.8-6.2,13.8-7.7,19-6.1,39.2-11.6,55.5-23.5-.1-1.4-.1-2.9-.1-4.3a25.3,25.3,0,0,0,.1-2.8c-.1-.4.1-1.6-.3-1.9s.7-3.5,2.3-2.2,1.1,3.6,1.1,5.2v3.6c1.7-1.4,3.4-2.9,5-4.5s3.7.8,2.3,2.2-4.9,4.4-7.4,6.4l-.8.5a85.6,85.6,0,0,1-7.7,5.1c3.4-.2,6.8-.1,10.1,0,5.7.3,11.5.8,17,2.6s8.2,3.1,12.5,4.3l2.1.5c9.5,1.8,18.3-2.9,24.6-10.1,1.3-1.5,3.5.7,2.2,2.2a33.6,33.6,0,0,1-13.5,9.8l-2.6.8,6,1.3c12,2.4,24.7,3.8,36.6.1,5.7-1.7,10.9-4.6,16.1-7.5l15-7.7c1.8-1,3.4,1.7,1.6,2.7s-6,3.2-9.1,4.7a52.6,52.6,0,0,1,13.1,4.2c1.8.8.2,3.5-1.6,2.7-5.5-2.4-10.9-4.3-17-4l-3.3,1.7a71.3,71.3,0,0,1-16.6,7,61.7,61.7,0,0,1-18.2,1.5,135.8,135.8,0,0,1-19-2.7c-4.9-1-9.7-2.5-14.6-3.6h-.6l-1.1-.3h-.2l-.8-.2c-4-1-7.9-2.7-11.9-4.1-5.7-1.9-11.6-2.4-17.6-2.6s-11.5-.3-17.1,1.1h-.1c-2.5,1.2-5,2.4-7.6,3.4-10.5,4.4-21.4,7.7-32.3,11.1-4.9,1.5-10.2,3.3-13.7,7.3a9.7,9.7,0,0,0,.2,13.3c3.3,3.7,8.1,5.5,12.5,7.4s6.5,2.8,9.7,4.4a38.8,38.8,0,0,0,3.1-2.6,1.7,1.7,0,0,1,2.2,0,1.5,1.5,0,0,1,0,2.2l-2.3,2,.3.2a36.2,36.2,0,0,1,10.6,8.9,14,14,0,0,1,1,1.6c1.7-.4,3.5-.2,5.4-.5a4,4,0,0,0,1.8-1,1.6,1.6,0,0,1,.7-.7c1.3-1.8,2-4.6,2.5-6.4s1.1-4.2,1.7-6.3a21.1,21.1,0,0,0-5.8-3.4c-1.8-.7-1-3.8.9-3a28,28,0,0,1,6.1,3.4,16.8,16.8,0,0,1,5.5-7.2c1.7-1.2,3.2,1.6,1.6,2.7a12.3,12.3,0,0,0-4.2,5.4c11.7-.3,23.5-.2,35.2.5,5.4.3,10.8.8,16.2.4a35.1,35.1,0,0,0,7.8-1.2,20.6,20.6,0,0,0,3.5-1.2l.7-.4a28,28,0,0,1-8.1-5.4,1.6,1.6,0,0,1,2.2-2.2c12.1,11.4,30.7,7.4,45.7,8.8,1.6.2,2.2,2.7.4,3.1l-1.6.3a1.4,1.4,0,0,1-1.5-.4c-4.4-.3-9-.3-13.5-.3a26.7,26.7,0,0,1,4.5,4.4c2.2,2.8,4.7,6.3,4,10-.3,2-3.3,1.2-3-.8s-.8-3.4-1.7-4.7a16.6,16.6,0,0,0-2.5-3.4,25.8,25.8,0,0,0-6.9-5.4l-.4-.3a56,56,0,0,1-13.6-2.2h0a1.5,1.5,0,0,1-1.1.4l-1.1.7-1.8.8a25.3,25.3,0,0,1-3.6,1.2,39.8,39.8,0,0,1-7.7,1.2C210.9,211.3,205.5,210.8,200.1,210.5Z"/></g></g></svg>