<svg xmlns="http://www.w3.org/2000/svg" viewBox="0 0 448.9 378.9"><defs><style>.cls-1{fill:#9f9f9f;}.cls-2{fill:none;}.cls-3{fill:#fff;}</style></defs><title>brain1</title><g id="레이어_2" data-name="레이어 2"><g id="레이어_1-2" data-name="레이어 1"><path class="cls-1" d="M105,214.1,95,229H62.8L38,221.6,20.7,206.7l-9.9-19.8-5-29.8V132.3l9.9-34.6L30.6,77.8,45.5,58,65.3,43.1,85.1,28.3l17.4-7.5,29.7-9.9,37.2-7.4h79.3L266,6l22.3,4.9,10,7.5-17.4,7.4-7.4,7.4-14.9,5-12.4,4.9L236.3,53v7.5l5,9.9-10,2.5-14.8,4.9L204.1,90.2l-9.9,22.3v19.8l7.4,17.4-2.5,12.4-2.5,9.9-19.8,7.4H157l-19.8,7.5Z"/><path class="cls-1" d="M283.3,21.9l15-7.5,45,20,37.5,35.2,27.5,35.1,20,37.6c-1.7,4.2-6.5,11.6-12.5,17.6s-17.5,5-22.5,2.5l-2.5,5-10,7.5H368.3l-17.5-7.5-15-17.5v5c-1.7,2.5-6.5,12-12.5,20s-21.7-5.8-27.5-12.5l-5-12.5-17.5-7.6h-20l-30,12.6-27.5,17.5,5-22.5-7.5-20.1,2.5-25.1,12.5-20.1,15-7.5,17.5-7.5-5-15.1,15-15,22.5-5.1Z"/><path class="cls-1" d="M107.7,210.8l-9.9,17.6,4.9,27.7,5,20.1,24.9,20.1,37.3,5.1,39.8-5.1L257,276.2h22.4l27.4-10h42.3l9.9-10.1,7.5-20.1,17.4,5c4.2,0,14.4-2.5,22.4-12.6s-3.3-20.9-9.9-25.1V163L374,173.1,354.1,163l-15-15.1A103.4,103.4,0,0,1,326.7,163c-6,6.1-24.1-2.5-32.4-7.5l-14.9-15.1H249.5L214.7,163l-27.4,15.1H152.5l-19.9,12.6Z"/><path class="cls-1" d="M386.8,279.6l-33.4-7.7-5.1-10.2,17.9-20.6h10.3c3.4,0,13.3-2.5,25.7-12.8s-5.2-18-15.4-20.5L397,184.6V159s15.4,3.4,18,0l15.4-10.3,12.9,35.9v36L430.4,254,415,271.9Z"/><path class="cls-2" d="M199.5,155.6Z"/><path class="cls-2" d="M58.7,212.6h0a17.3,17.3,0,0,0-2.5,2.1A17.3,17.3,0,0,1,58.7,212.6Z"/><path class="cls-2" d="M201.9,151.4l.6-1.5Z"/><path class="cls-2" d="M385.3,170.3c-.1.7,0,1.5-.4,1.9s.3-1.3.4-1.9Z"/><path class="cls-2" d="M36.2,214.5c7.5,1,15.1.9,22.4-1.9h0C51.3,215.4,43.7,215.5,36.2,214.5Z"/><path class="cls-2" d="M375.1,119c2.2-1.7,4-3.8,6.1-5.6h0C379.1,115.2,377.3,117.3,375.1,119Z"/><path class="cls-3" d="M253.8,0c7,1.5,14.3,2.5,21.2,4.6C287.7,8.4,300.6,12,312.9,17c31.5,13.1,55.5,36,77.6,61.2,15.2,17.3,27.2,36.9,37.7,57.3a162.1,162.1,0,0,1,13.7,38.9c2.6,11.8,4.7,23.7,4.1,35.8-1.4,24.6-9.1,46.8-27.1,64.3-3.8,3.7-9.6,5.8-14.9,7.5s-10,1.6-15,2c-2.5.2-3.8.6-4.7,3.3-2.1,6.2-4.2,12.5-7.4,18-7.2,12.1-19.2,17.1-32.4,18.9-11.6,1.6-23.4,2.1-35.1,3.1-3.6.3-7.2,1-10.7,1.6s-4.2,2.3-3,5c3.3,7.2,6.9,14.3,10.4,21.4.6,1.2,1.3,2.2,2,3.4,5.3,9.3,1.6,12.9-6.7,16.8a22.1,22.1,0,0,1-6.1,2.1c-5.5.6-9.8-.1-13.5-5.8-12.7-19.3-28.6-35.8-46.2-50.7a19.3,19.3,0,0,0-5.9-3.4A35,35,0,0,1,212,302.8c-1.3-2.3-2.5-3.1-5.5-2.4-8.6,2-17.3,3.7-26,4.9-12.7,1.8-25.2-.3-37.4-3.9s-21.7-6.4-31-13.3S99.6,274,100,263.8s0-17.8-4.4-25.8c-.7-1.3-2.7-2.9-4-2.8-15.2.9-29.7-2.8-44.1-7.1-18.9-5.6-31.9-18.2-38.1-36.4-4.1-11.8-5.2-24.6-7.6-37A51.7,51.7,0,0,0,0,149.6V378.9H448.9V0Z"/><path d="M9.4,191.7c6.2,18.2,19.2,30.8,38.1,36.4,14.4,4.3,28.9,8,44.1,7.1,1.3-.1,3.3,1.5,4,2.8,4.4,8,4.8,16.8,4.4,25.8s4.1,18.2,12.1,24.3,20.2,10.1,31,13.3,24.7,5.7,37.4,3.9c8.7-1.2,17.4-2.9,26-4.9,3-.7,4.2.1,5.5,2.4a35,35,0,0,0,17.7,14.9,19.3,19.3,0,0,1,5.9,3.4c17.6,14.9,33.5,31.4,46.2,50.7,3.7,5.7,8,6.4,13.5,5.8a22.1,22.1,0,0,0,6.1-2.1c8.3-3.9,12-7.5,6.7-16.8-.7-1.2-1.4-2.2-2-3.4-3.5-7.1-7.1-14.2-10.4-21.4-1.2-2.7.1-4.6,3-5s7.1-1.3,10.7-1.6c11.7-1,23.5-1.5,35.1-3.1,13.2-1.8,25.2-6.8,32.4-18.9,3.2-5.5,5.3-11.8,7.4-18,.9-2.7,2.2-3.1,4.7-3.3,5-.4,10.3-.5,15-2s11.1-3.8,14.9-7.5c18-17.5,25.7-39.7,27.1-64.3.6-12.1-1.5-24-4.1-35.8a162.1,162.1,0,0,0-13.7-38.9c-10.5-20.4-22.5-40-37.7-57.3C368.4,53,344.4,30.1,312.9,17,300.6,12,287.7,8.4,275,4.6c-6.9-2.1-14.2-3.1-21.2-4.6H174.1L156.7,3.5c-9.5,1.9-19.1,3.6-28.5,5.9s-17,4.8-25.4,7.4C89.1,21,77.5,29.2,66.3,37.7S45.1,53.8,36.5,63.6C23.3,78.6,11.1,94.7,6.7,115c-1.7,8.1-3.3,16.2-5,24.2A15.4,15.4,0,0,1,0,142.6v7a51.7,51.7,0,0,1,1.8,5.1C4.2,167.1,5.3,179.9,9.4,191.7Zm77.8,33.8c-7.8,2.4-15.7,2-23.5-.1a32.3,32.3,0,0,1-6.2-2.1c-1.8-.9-4.3-2.2-4.5-3.7s2-3.4,3.2-4.9a17.3,17.3,0,0,1,2.5-2.1h-.1c-7.3,2.8-14.9,2.9-22.4,1.9L33,214c-6-.9-9.3-6.5-13-12.7,5,0,9,.3,12.9-.1a27.9,27.9,0,0,1,21.5,6.7,38,38,0,0,1,4.2,4.7h.1c8.7,4.4,18,5.7,27.8,5.4,1.6,0,3.4,1.9,5.1,3C90.1,222.5,89,225,87.2,225.5Zm127.3,73.1a38.2,38.2,0,0,1,4.6-2.1c2.4-.8,4-.5,5.5,2.3,3.5,6.4,9.3,10.6,15.8,13.7l5.9,3.1C237.3,319.5,217.8,310.5,214.5,298.6Zm57.1-16.2c2-3.2,5.1-3,8-3.1.6,0,1.9,2.4,1.6,3.1-4.9,11.2-13.8,18-25.1,21.8-1.1.4-2.8-.8-4.2-1.2s-.1-1.2-.1-1.8C261.6,298.2,266.6,290.2,271.6,282.4Zm-21.7,15c-1-2.3-2-4.8-1.8-7.2s2-3.1,3.5-4.1c4.5-2.9,9.2-5.1,14.8-4.9-.5,6.4-7.6,15.4-13.1,16.9C252.2,298.3,250.2,298,249.9,297.4Zm13.9,15.8a39.5,39.5,0,0,1,7.8-2.5,4.4,4.4,0,0,1,3.3,1.1c3.5,3.8,6.8,7.8,10.2,11.8.4.5.4,1.2.7,1.8-7.6,3-20.3-1.8-23.5-8.8C262,315.8,262.9,313.7,263.8,313.2Zm4.2-6.6c-1,.5-2.4.1-3.6.1l-.3-1a65,65,0,0,1,6.1-4.6c7.1-4.2,11.4-10.6,14.6-17.9,1.8-3.9,8-7.2,11.9-5.4.7.4,1.1,3.1.6,4.2-3.9,7.9-10,13.8-17.3,18.4A104.6,104.6,0,0,1,268,306.6Zm26.4-36.9a29.5,29.5,0,0,1-8.2,2.8c-7.1,1.2-14.3,2.1-21.4,3.1a5,5,0,0,1-.2-1.2c-4.6.5-9.2,1.2-13.7,1.6a7.5,7.5,0,0,1-3.3-.6,21.7,21.7,0,0,1-11-11.3c-1.8-4.1.9-8.3,5.4-7.9a127.3,127.3,0,0,1,16.2,2.7c6.2,1.3,11.8-.4,17.1-3.4,6.8-3.9,9.1-3.7,14.8,1.1a47.3,47.3,0,0,0,4.6,3.2C299.7,263.1,299.7,267,294.4,269.7Zm-42.6,39.9a30.8,30.8,0,0,1,2,3.4c-11.3-.9-24.7-10.4-26.5-18.4l1.4-.8c9.2-3.6,9.2-3.6,14.9,4.6C246.3,302.2,249.1,305.8,251.8,309.6Zm49.7,45.5c.6.9,1.4,1.8,2.1,2.7,3,4.5,2.9,7.5-.1,10.6-5,5-9,6.1-13.4,2.5s-5.8-6.1-8.5-9.3l-30.8-35.5-3.1-3.6c6.8-2.3,12.1-3.2,17.1,2.9s10.7,5.6,17,5.2c4-.3,5.6,1.7,7.4,5C292.8,342.3,297.3,348.6,301.5,355.1Zm-1.6-29.6c-7.5,0-20-9.2-21.4-15.2-.2-.9.7-2.8,1.4-3a5.5,5.5,0,0,1,4.2.3c3.2,2.5,5.9,5.5,9,8.1s4.9,3.7,7.2,5.6a20.4,20.4,0,0,1,2.3,2.7Zm30.5-3.4c-5.4.3-10.8.5-16.1.3-7.4-.2-13-4.6-18.6-8.8a56.6,56.6,0,0,1-7.5-7.2c-.8-.8-.6-2.5-.9-3.8,1.5-.3,3.4-1.3,4.5-.8,4.2,2,8.1,4.6,12.1,6.8a90.3,90.3,0,0,0,28.8,10.7c.5.1.9.6,2.3,1.6C332.8,321.5,331.6,322.1,330.4,322.1ZM293.8,297c2.3-2.1,4.5-4.3,7-6.3s4.9-1.7,6.8.9c7,10.2,17.2,16.1,28.2,21.1l6.3,2.9C334.5,321.4,299.7,305.2,293.8,297ZM352,314.8a99.8,99.8,0,0,1-13.9-4.9c-8.7-3.9-17.2-8.5-23.8-15.7a22.9,22.9,0,0,1-2.6-3.8c7.9-2.5,17.3,0,22.1,5.3s12.7,10.6,20.2,14.1c1.3.6,2,2.3,3,3.4C355.3,313.8,353.4,315.2,352,314.8Zm13.3-7.1c-1.4,2.9-4.5,3.1-7.2,1.8a135.6,135.6,0,0,1-13.1-6.8,44.9,44.9,0,0,1-6.5-5c-1.2-1.1-1.8-2.7-2.7-4l1-1a60.7,60.7,0,0,1,25.8,10.1C364,303.8,365.8,306.7,365.3,307.7Zm7.2-6.9c-1.6,2.2-3,2.3-5.3.5-9.6-7.3-21-10.4-32.6-12.3-8.7-1.4-17.6-1.7-26.4-2.8-1.3-.1-2.4-1.3-3.6-2,1.2-1.5,2.1-3.9,3.5-4.3s5.8-.1,8.7-.1c14.7.5,29.2,2.6,43.2,7.5,4.4,1.5,8.5,4.3,12.5,6.8S374,298.5,372.5,300.8Zm3.3-9.1c-17.4-12.1-38-13.7-58.3-16.4,6.6-2.5,13.1-4.7,20.1-3.7,12.5,1.8,24.8,4.5,36.5,9.5C379.2,283.4,380,286.7,375.8,291.7Zm50.3-137.5a11.4,11.4,0,0,1,5.2,6.4c2.1,8.5,3.7,17.2,5.3,25.9s-1.7,9.9-8.5,7.4a55.9,55.9,0,0,0-7.8-2.8c-3.3-.7-2.8-2.5-2-4.8s2.3-7.1,3.6-11.1c-1.4-3.7-2.9-7.2-3.9-10.9a10.4,10.4,0,0,1,.4-4.9c.2-.7,1.2-1.3,1.9-1.8S425.1,153.7,426.1,154.2ZM113.6,24.8c3.3-5.9,9.5-6.7,15.2-8.3,8.6-2.4,17.3-4.7,26.1-6.6,4.1-.9,8.4-.9,12.6-1.1s3.9,2.4,2,4.9a12.2,12.2,0,0,1-9.7,4.9,10.2,10.2,0,0,0-5.9,2.2c4.2-.6,8.3-1,12.4-1.8,1-.2,1.6-1.5,2.5-2.2,3.4-2.7,6.6-6.2,10.4-8.1,7.1-3.3,9.9-1.6,12.6,7.7,1.1-8.9,6.8-12.5,13.4-13.6A94.9,94.9,0,0,1,227.8,2a97,97,0,0,1,20.6,4.4c4.7,1.5,5,3.5,2,9.1,4.5-.9,8.2-2,12-2.4,6.6-.8,13.2-1.8,19.8-1.6,4.8.1,9.1,4.4,8,7s-5.8,3.8-9.3,4.1c-.9.1-1.8-.1-2.9-.1.5,8.9-6.7,10-12.6,11.8-9.3,2.8-18.8,5.2-26.1,12.2-2.3,2.2-4.5,4.5-6.9,6.9a54.7,54.7,0,0,1,2.6,6.5c2.1,7.5-.7,12.4-8.3,13.8s-15.1,4-21,9.5-8.4,9.9-9.5,16.3a240.5,240.5,0,0,0-3.8,29.2c-.2,4,1.8,8.6,4,12.2l1,1.8c2.2,4.1,3.4,8.1,2.1,12.9h0c.8-1.4,1.7-2.8,2.4-4.2l.6-1.5c.4-1.2.4-3.2-.4-3.9-7.8-8.3-7.8-18.3-4.6-27.9s8.1-19.8,12.9-29.3c3.8-7.4,11-10.5,18.9-12,4.4-.8,8.9-1.4,13.1-2.8a10.3,10.3,0,0,0,5.4-4.9c.5-1-1.8-3.7-3.3-5-8.8-7.1-8.8-10.2-.1-17.4S262.5,36.2,273,34.9c2.2-.3,3-1.1,4-3.1a13.2,13.2,0,0,1,5.3-5.9c11.7-5.9,23.8-5.7,35.7-.5a8.4,8.4,0,0,1,4,5.5c.2,1.1-2.4,3.3-4.2,4.1-6.9,3.1-9.8,2.7-17.5-1.8,5,7,11.3,8.1,18.1,3.5a29.3,29.3,0,0,1,9.3-4.4c5-1,6.9,2,5.4,6.8S331,48.3,330,52.8l1.4.4a23.3,23.3,0,0,0,1.1-2.8c2.9-8.1,9.9-10.2,16.5-4.6,4.3,3.6,8.3,7.8,12.3,11.7l6.2,6.2c2.5,2.8,3.7,6.2,2.3,9.7s-4.7,3.8-8,4a111.3,111.3,0,0,0-11.6,1.4c-3.2.6-5.2-.8-7.2-3s-4.8-4.7-7.3-7.1l-.7.8c1.9,3.3,3.9,6.4,5.6,9.8,4.6,9.4,3,19.5,2.3,29.2-1.1,14.4-3.6,28.5-9.3,42-6.9,16.5-15.8,31.3-33.1,39.5,2.7-.5,5.6-.5,8.1-1.4,4.2-1.6,6.1-.1,6.4,3.4l6.9-11.4L333,162c.7-1.1,1.1-2.4,1.8-3.5,3-4.8,5.3-4.8,9-.5a106.8,106.8,0,0,0,9.7,10.5,24.4,24.4,0,0,0,17.5,6.4c5.6-.1,6.8,1.7,5.1,6.9a9.8,9.8,0,0,0-.6,2.6c2.9-3.7,6.2-7.9,9.4-12.2.4-.4.3-1.2.4-1.9-7,5.5-16.3,5.4-24.2.5-14.3-8.8-20.3-23.7-18.1-40.9,1.8-14.4,6.2-28.5,5.1-43.2a6.8,6.8,0,0,1,7.5-7.2c6.2.6,12.2,2.6,18.3,3.3,17.2,1.9,26,14.5,35.1,26.8,2.5,3.3.8,6.6-3.3,7h-1.8c-7.7-.9-9.8,1.5-11.7,10.1-1.5,6.8-6.1,11-12.7,10.9-4.1-.1-7.8-2.6-8.7-6s.1-8,4-10.6l2.8-1.9c3.2-2.2,3.3-2.8,3.6-5.8-2.1,1.8-3.9,3.9-6.1,5.6l-1,.6c-3.9,2.6-5.5,1.7-6.7-2.7a29.5,29.5,0,0,0-2.4-5.8l2.4,21.6c.5,4.7,2.8,8,7.2,9.6s9,.9,12.4-2.8a106.9,106.9,0,0,0,8-9.8c5.1-7,11-9.9,16.9-8.1s11,9.2,11.6,16.6-2.3,15-7.7,21c-.8,1-1.7,1.9-2.8,3.1a47.8,47.8,0,0,1,4.3,4.8c4.8,6.9,2.4,13.7-.8,20.2-1.5,2.9-1.4,4.6.2,7.5s2.2,7.6,3.2,11.1c.2-1.7.7-3.9.9-6.2.3-4.3,1.7-5.2,5.9-3.2A21,21,0,0,1,439,217.3a45.3,45.3,0,0,1-.5,7.4,9.3,9.3,0,0,1-2.6,5.1c-.6.5-2.9-.9-4.4-1.7a14.5,14.5,0,0,0-3.5-1.9c1,1.5,2.2,3,3.1,4.6,2.8,4.9,3.5,9.8-.1,14.7s-11.3,7.3-16,5.3a3.7,3.7,0,0,0-3.4.2c-5.3,4.1-11.2,5.5-18.1,4.5,5.5,2.8,5.6,3.3,1.8,10,1.7-1.6,4.1-2.7,5.1-4.6,3.6-7,10.7-7.1,16.8-8.8,1.7-.5,5.1,1.7,6.1,3.6s0,4.9-1.2,6.6a30,30,0,0,1-16.5,12.3c-13.8,4-27.3,3.1-40.1-3.6-6.1-3.2-7.9-9.7-4.9-16,2-4.2,3.7-8.6,5.8-12.6.5-.9,2.8-1.6,3.9-1.3,11.4,3.1,23,.4,31-7.1-5,1.5-10.8,3.6-16.8,4.8s-12.8.1-17.7-4.8-3.1-11.2-2.8-17.1c0-1,1.4-2.1,2.4-2.8s3.7-2,5.9-3.2c-4.8.5-9.4.6-13.8,1.6-10.3,2.3-19.9-.6-29.4-3.7-2.8-.9-5.4-2.3-8.1-3.1-4.4-1.3-6.6-4-6.3-7.2-3.2,3.2-6.7,7.7-11.2,10.9s-10.1,5-15,8.1c4.5-1.4,9-2.7,13.4-4.2,2.5-.9,4.7-2.3,7.1-3.4,6-2.9,11.9-2.4,17.6.6,7.7,4.2,15.9,5.2,24.5,4.4,6.3-.5,9.7.7,11,7.9s3.9,17.3-.5,25.6-11.7,15.3-22.6,15.2-19.2-.1-28.7-1.1a30.2,30.2,0,0,1-13.3-4.9c-8.8-5.9-17.4-8.2-27.3-2.8-2,1.2-4.7,1.4-7.2,1.5-8,.5-12.1-3.2-13.1-11.7-2.3,7.8-7.8,11.4-15.5,10.5s-13.5-3.9-14.4-12.8c-.3.5-.5.6-.5.8.6,9-3.3,14.6-12.4,16.6-7,1.6-13.9,3.8-20.9,5.7l-3.2,1.4c13.9.4,14.7,1,18.2,12a45.6,45.6,0,0,0,.4-5.1c-.4-6,2.6-10,7.6-12a82.3,82.3,0,0,1,15.5-4.1c1.2-.3,3.5,1.1,4.1,2.3A34.4,34.4,0,0,0,241.7,275a9.7,9.7,0,0,1,2.2,2.3,15,15,0,0,1-2.7,2.4c-14.3,7-29.1,12.6-44.6,15.8s-31.2,4.2-47.1.8c-10.8-2.3-21.2-5-29.9-12.1a30.4,30.4,0,0,1-6.6-6.8c-1-1.6-.5-4.1-.6-6.2,1.9-.1,3.8-.6,5.6-.3a74.1,74.1,0,0,1,8.1,2.5c-5.3-4.4-10.6-8-14.9-12.6-12.6-13.5-15.5-35.2,1.3-49.5,7.8-6.7,15.3-13.8,23.3-20.4s20-12.2,32.6-10.7c3,.4,6.2.5,8.8,1.8a6.5,6.5,0,0,1,2.6,5.5,98.1,98.1,0,0,1-3.3,14c-2.2,7.9-2.5,15.6,1.5,23.1.7,1.3,1.3,2.7,1.9,4,2.6,5.7,1.7,7.9-4,10.6l-6.9,3.6c-.4.2-.5.7-1.6,2,6.7-3.7,12.6-5.9,19.8-3.5-4.1-6.6,0-10.8,4-15.7-6.1,4.2-8.4,3.6-11.2-2.8-3.6-8.4-2.2-16.8.8-25.1s9.7-14.8,17.6-20c13-8.5,25.2-18.3,37.9-27.2,7.6-5.3,16.3-6.6,25.4-5.7,3.5.4,7,.4,10.5.5,8.9.3,16.8,2.4,21.1,11.7.2-3.8-1.6-7.2-5.5-10.8s-4.1-5.2-.3-9.3a72.7,72.7,0,0,1,5.7-5.4c4.8-4.3,8.5-8.8,7.9-16-.3-3.7,1.3-7.6,1.5-11.6-1.3,4.1-2.6,8.2-4,12.3-2.4,7-5.4,13.6-11.6,18.1s-16.6,6.6-25.3,4.1c-12.3-3.6-18.4-12.8-18.8-26-1.8,3.2-2.3,6.4.2,11.5,5.1,10.6-.7,17.8-9.4,23s-17.5,10.8-26.4,16c-1.8,1-5.2,2.1-6,1.3s-1.5-4.3-2-6.6a8.2,8.2,0,0,1,.3-2.1c-1.7,2.9-3.3,5.8-5,8.6-5.2,8.1-12.6,11.7-22.2,10.9-6.1-.5-12.2-.6-18.3-.7-1.9-.1-3.7.7-5.6,1s-4.8.8-5.1.2c-1.1-2.3-2.1-5.2-1.7-7.5s2.6-5.5,3.9-8.2c3.4-6.9,2-13.7-.9-20.4,0,3.2.1,6.3-.1,9.5a16.8,16.8,0,0,1-1.2,6.3,172.2,172.2,0,0,1-8.6,16.5c-2.7,4.3-9.6,5.2-15,1.8s-9.3-6.8-14-10.3c4.5,8.8,10.3,16,20.4,18.8,3.4.9,4,2.7,1.4,5.2s-5.3,4.5-7.9,6.8c-4,3.8-8.2,7.5-11.7,11.7-7,8.6-16.3,10.5-26.3,8.5a76.6,76.6,0,0,1-31.3-13.7c-3.4-2.6-5.6-6.7-7.9-9.7-1.4,1.8-3,5.1-5.5,6.6a17.6,17.6,0,0,1-9.6,1.8c-7.7-.7-12.7-6-13.6-14.1s-1.3-17-1.8-25.5a3.7,3.7,0,0,1,.7-2.8c4.1-3.4,3.2-7.9,3.4-12.3,1.2-23.2,14.4-38.2,33.5-49.1,7.3-4.1,10.5-3.6,16.2,2.4,3.1,3.3,6.2,6.1,11.2,5.6,2.2-.2,3,1.3,2.4,3.5s-1.5,5.5-2.3,8.2l1.6.5c1.1-3.5,2.7-7,3.3-10.7,1.2-7.9,5-13.5,11.5-13.8s10.9.8,16.3,1.7,10.5,2.2,15.9,2.6c-6.1-.4-11.2-3.1-16.6-5.9s-14.2-2.3-21.3-.7-8.4-.9-7.8-6.9a28.3,28.3,0,0,1,7.6-16.7c5.2-5.5,13.8-9.3,22.5-9.6l-2.8-.5c-3.5-.6-7.6-1.7-7.7-5.6a13.5,13.5,0,0,1,3.7-9.1c6.8-6.5,15.6-6.7,24.2-5.2,2.3.4,5.3,4,5.5,6.3a35.6,35.6,0,0,1-1.5,14.1c-1.6,5.7-1.7,7,3.6,9.5,7.7,3.7,12,10.3,16,17.3,1.6,2.8,3.2,5.6,5,8.2,4.7,6.9,3.8,15.4-3.1,20a286.4,286.4,0,0,1-26.1,15.7c-4.1,2.2-8.9,3.2-13.6,4.1s-10.9,1.1-16.3,2.1a14.7,14.7,0,0,0-9.4,7.1c-8.8,12.6-12.6,14-27.3,10.4l3.8,2.1c3.8,2.3,4.2,4.7.3,6.8a27.9,27.9,0,0,1-11.8,3.9c-6.2.2-12.5-.9-18.5-1.5,3.1,3.1,7.8,4,12.4,4.6,7.1.9,12.1,4.7,15.9,10.4,7.1,10.7,14,13.4,27.4,13.4l-12.3-5.6a15.4,15.4,0,0,1-3.7-2.3c-9.4-7.2-9.2-16.7.6-23.2,5.7-3.7,10.8-7.7,13.8-14.1s11.2-9.3,18.5-10.3a150.5,150.5,0,0,0,33-8.9c13.2-5.3,21.2-2.5,26.6,8.7a1.9,1.9,0,0,0,1.8,1.2c-1.8-3.5-3.6-7.1-5.5-10.6s-4.4-8.1-2-13.4a25.9,25.9,0,0,0,.6-18.4c-1.7-5.6-.2-8.7,5-11.5,7.5-4,15-7.6,22.5-11.5a3.5,3.5,0,0,0,1.7-2c-2.4.7-4.7,1.6-7.1,2.2-8,1.7-12.8-1.7-12.6-9.9.1-5.4,1.8-10.8,2.6-16.2a17.6,17.6,0,0,0-.4-7.9c-1.6,6.6-3.6,13.1-4.8,19.8a30.2,30.2,0,0,0,.5,10.8c1.1,5.5,0,8.7-4.5,11.2a11.4,11.4,0,0,1-13.3-1.7c-4.1-4.1-8.2-8.2-12.5-12.1s-5.4-8.4-2-15.3c.9-1.8,2.1-3.4,2.5-4.1-1.4-1.7-2.9-2.7-3.3-4.1-1.1-4.7-4.7-6.6-8.6-7.7s-6.1-.2-9.1-.6-4.5-.7-5.2-2S112.8,26.4,113.6,24.8ZM18.7,102.4a26.5,26.5,0,0,1,4.6-9.2C30,83.6,36.9,74.2,49.2,71a1.9,1.9,0,0,0,1.4-.9c3.1-7.1,9.8-10,16.1-13.2L66,55.7c-3.4,2-6.9,3.9-10.2,6.2s-5.3,5-8.4,6.8-4.3.2-6.5.2c.3-1.8-.1-4.2,1-5.3a63.3,63.3,0,0,1,10.7-9.4c12.7-8.9,25.6-17.6,38.7-25.9,4.8-3.1,10.4-5,15.8-7,3.3-1.2,5.6,1.1,4.2,4.1-3.6,7.5-7.1,15.3-17.4,16C98.2,50.2,97,55.2,90,60.7c-2.6,2.1-5.5,4.1-7.5,6.7C78,73.3,72.6,77,64.9,76.8c-1.7,0-3.4.5-4.8.1,4.4,1.5,9.3,2.3,13.2,4.7s4.8,5.4,6.2,8.5S78.9,96,76.2,98s-4.9,1.2-7.2-.6l-4.4-3.5c-5.8-4.8-11.6-2.1-17.3,0-7.5,2.8-13.6,7.7-18.8,13.7-2.3,2.7-5.2,3-7.3,1.4S18.2,104.4,18.7,102.4Zm-6,11.8c.5-1.1,2.6-1.6,4-2.4.8,1.7,2.5,3.5,2.3,5.1-.7,5-2.1,9.9-3.2,14.8-1.8,8.8-3.5,17.5-5.3,26.3-.3,1.4-.4,2.7-.7,4.1l-1.2.2a20.7,20.7,0,0,1-1.5-3.4C3.2,143.3,6.5,128.6,12.7,114.2Z"/><path d="M401.5,233.8c.2-.2.3-.5,0,0Z"/><path class="cls-3" d="M6.7,115c4.4-20.3,16.6-36.4,29.8-51.4,8.6-9.8,19.4-17.9,29.8-25.9S89.1,21,102.8,16.8c8.4-2.6,16.9-5.3,25.4-7.4s19-4,28.5-5.9L174.1,0H0V142.6a15.4,15.4,0,0,0,1.7-3.4C3.4,131.2,5,123.1,6.7,115Z"/><path class="cls-3" d="M199.5,155.6h0c.8-1.4,1.7-2.8,2.4-4.2C201.2,152.8,200.3,154.2,199.5,155.6Z"/><path class="cls-3" d="M385.3,170.3a.1.1,0,0,1,.1-.1h-.1Z"/><path class="cls-3" d="M401.5,233.8h0Z"/><path class="cls-3" d="M381.2,113.4h0c-.3,3-.4,3.6-3.6,5.8C380.8,117,380.9,116.4,381.2,113.4Z"/><path class="cls-3" d="M385.3,170.2Z"/><path class="cls-3" d="M199.5,155.6h0c1.3-4.8.1-8.8-2.1-12.9C199.6,146.8,200.8,150.8,199.5,155.6Z"/><path class="cls-3" d="M58.6,212.6h0Z"/><path class="cls-3" d="M58.8,212.5h0Z"/><path class="cls-3" d="M58.7,212.6Z"/><path d="M223.5,194.1c-3.8-1.6-8-2.2-13-3.5,26.9,19.8,23.2,23.1,22.6,44.6v.3l.3-.8c.5-2.3.8-4.6,1.5-6.8,2.6-8.9,7.3-11,16.2-7.5,2.2.8,4.6,1.4,6.9,2.1a14.5,14.5,0,0,0-5.4-3.7c-4.7-1.9-9.7-3.3-14-5.8-2.2-1.2-4.8-4.4-4.7-6.5s3-5.3,5.4-6c10.2-3.3,20.7-6,31.7-9-10.1,1.3-19.7,2.3-29.2,3.9C235.5,196.5,229.5,196.8,223.5,194.1Z"/><path d="M142.7,256.1c-.7-9.1.9-18.5,1.8-27.7a20,20,0,0,1,8.6-14.5,24.3,24.3,0,0,0,3.3-3.8c-5.8,3.5-12.8,5.8-14.2,13.9-.5,3.2-1.4,6.4-2.1,9.7-1,5-3.2,6.3-8.2,4.9-2.2-.6-4.7-.8-7-1.2.6,1.1,1.6,1.4,2.4,1.9,4.1,2.4,8.1,4.8,9.9,9.8a137.5,137.5,0,0,0,6.7,16.4c3.1,6.4,7.1,12.4,6.8,19.5l9.1-6C150.3,274.7,143.6,266.9,142.7,256.1Z"/><path d="M276.7,58.4Z"/><path d="M259.9,103.1c.1,3,1,5.9,1.4,8.8-.2-9.8,2.6-18.5,8.3-24.7s10.1-10.9,14.2-17,10.6-10.7,19.2-9.9a36.3,36.3,0,0,0,5.7-.3c-.1-.3-.1-.7-.2-1.1-6.5.6-13.1.4-19.4,2s-8.4.2-12.1-2.3c1.2,2.6,3.2,5.2,3,7.5-.7,8.3-5.5,14.5-11.4,19.9s-9.5,2.7-14.5,2a27.4,27.4,0,0,0-20.3,4.9c4.6-.8,8.8-2,13-2.2C258.3,90.2,259.5,91.7,259.9,103.1Z"/><path d="M276.7,58.4h0l.3.2-.2-.3A.1.1,0,0,1,276.7,58.4Z"/><path d="M387.5,170.3c6.3-1.2,8.2-.2,8.2,6.2s-1.4,12.9-2.7,19.3c-.9,4.6-2.6,9.1-3.9,13.7,10.5-17,12.3-35.2,7-54.3a18.8,18.8,0,0,0-2.2,4.2c-2,4.2-3.4,9-8.5,10.8A5,5,0,0,0,387.5,170.3Z"/><path d="M385.4,170.2h0Z"/><path d="M385.4,170.2h0Z"/><path d="M308.3,239.5c4,.1,8,.6,11.7.9-1-2.6,0-5.5,3.4-8.2l-23.9,7.1v.6A88.3,88.3,0,0,1,308.3,239.5Z"/><path d="M227.5,21.9a10.4,10.4,0,0,0-2.3,1.7c-1.6,1.7-3,3.6-4.5,5.4-4.6,5.7-11.2,4.7-13.8-2.1a50.8,50.8,0,0,1-1.5-5.2,18.5,18.5,0,0,0-.6,7.7c.4,3.3-.3,5.1-4,5a25.9,25.9,0,0,0-5.5.7A27.7,27.7,0,0,1,214.1,42C218.6,35.1,223.1,28.4,227.5,21.9Z"/><path d="M58.9,123.3l-10-9.3c.1,1.7.1,3.4.9,4.6,2.6,3.8,0,4.9-2.4,6.7-4.2,3.1-8.2,6.5-12.3,9.8l.4.2Z"/><path d="M48.6,113.7l.3.3a4.9,4.9,0,0,0-.1-1.2A2.9,2.9,0,0,0,48.6,113.7Z"/></g></g></svg>