<svg xmlns="http://www.w3.org/2000/svg" viewBox="0 0 343.5 290"><defs><style>.cls-1{fill:#fff;}</style></defs><title>brain_1</title><g id="레이어_2" data-name="레이어 2"><g id="레이어_1-2" data-name="레이어 1"><path class="cls-1" d="M194.8,0H343.5V290H0V0H133.9c-3.2.6-6.4,1-9.5,1.7-10.2,2.2-20.3,4.6-30.5,6.9a110.9,110.9,0,0,0-37,16.1C41.3,35.2,27.5,47.4,17.2,63.2S0,97.7,2,117.8c1.1,9.7,2.6,19.7,5.7,28.9,4.8,14,14.7,23.6,29.2,28,11,3.3,22.1,6.1,33.8,5.3,1.8-.2,2.5.8,3.3,2.4,3,6.2,3.4,12.6,3.1,19.2-.3,8.2,3.3,14.6,9.8,19.4s15.1,7.4,23.2,9.8,18.9,4.3,28.7,2.9c6.6-.9,13.3-2.2,19.8-3.7,2.4-.6,3.3.1,4.3,1.8a27,27,0,0,0,13.5,11.4,20.9,20.9,0,0,1,4.6,2.6c13.4,11.4,25.6,24.1,35.3,38.9,2.9,4.3,6.1,4.8,10.3,4.4a16.3,16.3,0,0,0,4.7-1.6c6.4-3,9.2-5.7,5.1-12.9l-1.5-2.6c-2.6-5.4-5.4-10.8-7.9-16.4-1-2,0-3.4,2.2-3.8s5.5-.9,8.3-1.2c8.9-.8,17.9-1.1,26.8-2.4s19.3-5.2,24.8-14.4c2.5-4.3,4.1-9.1,5.7-13.8.7-2.1,1.7-2.4,3.6-2.6,3.8-.3,7.9-.3,11.5-1.5s8.5-2.9,11.4-5.7C335.1,196.8,341,179.8,342,161c.5-9.3-1.1-18.4-3.1-27.5a125,125,0,0,0-10.5-29.7c-8-15.7-17.2-30.7-28.9-43.9C282.6,40.6,264.2,23,240.1,13.1c-9.4-3.9-19.3-6.7-29-9.6C205.8,1.9,200.3,1.1,194.8,0Z"/><path d="M194.8,0c5.5,1.1,11,1.9,16.3,3.5,9.7,2.9,19.6,5.7,29,9.6,24.1,9.9,42.5,27.5,59.4,46.8,11.7,13.2,20.9,28.2,28.9,43.9a125,125,0,0,1,10.5,29.7c2,9.1,3.6,18.2,3.1,27.5-1,18.8-6.9,35.8-20.7,49.2-2.9,2.8-7.4,4.4-11.4,5.7s-7.7,1.2-11.5,1.5c-1.9.2-2.9.5-3.6,2.6-1.6,4.7-3.2,9.5-5.7,13.8-5.5,9.2-14.7,13.1-24.8,14.4s-17.9,1.6-26.8,2.4c-2.8.3-5.5.7-8.3,1.2s-3.2,1.8-2.2,3.8c2.5,5.6,5.3,11,7.9,16.4l1.5,2.6c4.1,7.2,1.3,9.9-5.1,12.9a16.3,16.3,0,0,1-4.7,1.6c-4.2.4-7.4-.1-10.3-4.4-9.7-14.8-21.9-27.5-35.3-38.9a20.9,20.9,0,0,0-4.6-2.6,27,27,0,0,1-13.5-11.4c-1-1.7-1.9-2.4-4.3-1.8-6.5,1.5-13.2,2.8-19.8,3.7-9.8,1.4-19.3-.2-28.7-2.9S93.9,226,86.9,221s-10.1-11.2-9.8-19.4c.3-6.6-.1-13-3.1-19.2-.8-1.6-1.5-2.6-3.3-2.4-11.7.8-22.8-2-33.8-5.3-14.5-4.4-24.4-14-29.2-28-3.1-9.2-4.6-19.2-5.7-28.9C0,97.7,6.5,79.6,17.2,63.2s24.1-28,39.7-38.5a110.9,110.9,0,0,1,37-16.1c10.2-2.3,20.3-4.7,30.5-6.9,3.1-.7,6.3-1.1,9.5-1.7ZM45.6,162.7a8.2,8.2,0,0,0-2,1.7c-1,1.2-2.6,2.6-2.5,3.7s2.1,2.2,3.5,2.9a23.5,23.5,0,0,0,4.7,1.5,30.7,30.7,0,0,0,18,.1c1.4-.4,2.3-2.2,3.4-3.4-1.3-.8-2.7-2.3-3.9-2.3-7.5.2-14.6-.8-21.3-4.1-1.1-1.2-2.1-2.6-3.3-3.7a21.2,21.2,0,0,0-16.4-5c-3,.2-6.1,0-9.9,0,2.8,4.8,5.3,9,9.9,9.8C32.3,164.9,39.1,165.2,45.6,162.7Zm107.7-43.5c1.2-4.2-.2-7.7-2.4-11.3s-3.2-6.3-3-9.3a188,188,0,0,1,2.9-22.4c.8-4.9,3.6-9,7.2-12.5s10-6.2,16.1-7.3,8-4.8,6.4-10.6a41,41,0,0,0-2-4.9c1.8-1.8,3.5-3.6,5.3-5.3,5.6-5.3,12.8-7.2,20-9.3,4.5-1.4,10-2.2,9.6-9.1a8.5,8.5,0,0,0,2.2.1c2.7-.2,5.8-.1,7.1-3.1s-2.4-5.3-6.1-5.4A112.4,112.4,0,0,0,201.4,10c-2.8.4-5.7,1.2-9.1,1.9,2.3-4.3,2.1-5.9-1.5-7A79.6,79.6,0,0,0,175,1.5a72.3,72.3,0,0,0-17.4.7c-5,.8-9.4,3.6-10.2,10.3-2.1-7-4.2-8.4-9.6-5.8-3,1.4-5.4,4.1-8,6.2-.7.5-1.2,1.5-1.9,1.7l-9.5,1.3a7.7,7.7,0,0,1,4.5-1.6,9.6,9.6,0,0,0,7.5-3.8c1.4-1.9.6-3.8-1.6-3.7a52.9,52.9,0,0,0-9.7.8c-6.7,1.5-13.3,3.2-20,5C94.8,13.9,90,14.5,87.6,19c-.7,1.2-1.4,3.2-.9,4.1s2.6,1.3,4.1,1.5,4.7-.1,6.9.5,5.7,2.3,6.6,5.9c.3,1,1.5,1.9,2.5,3.1s-1.2,1.8-1.9,3.2c-2.6,5.3-2.1,8.4,1.5,11.7s6.5,6.1,9.6,9.3a8.9,8.9,0,0,0,10.2,1.3c3.5-2,4.3-4.4,3.4-8.6a23.2,23.2,0,0,1-.3-8.3c.9-5.1,2.4-10.1,3.6-15.2a14.1,14.1,0,0,1,.4,6.1c-.7,4.2-2,8.3-2.1,12.4-.1,6.3,3.6,8.9,9.7,7.6a56,56,0,0,0,5.4-1.7,2.7,2.7,0,0,1-1.3,1.6c-5.7,2.9-11.5,5.7-17.2,8.7-4,2.2-5.1,4.6-3.8,8.9a19.8,19.8,0,0,1-.5,14c-1.8,4.1-.2,7.1,1.5,10.3s2.9,5.4,4.3,8.1a1.5,1.5,0,0,1-1.4-.9c-4.2-8.6-10.3-10.7-20.4-6.7a108.7,108.7,0,0,1-25.3,6.8c-5.5.8-11.4,1.9-14.1,7.9s-6.2,8-10.6,10.8c-7.5,5-7.6,12.3-.5,17.8a17.5,17.5,0,0,0,2.9,1.8l9.5,4.3c-9,.3-16.3-2.4-21.1-10.3a15.9,15.9,0,0,0-12.1-8c-3.5-.4-7.1-1.1-9.5-3.5,4.5.4,9.4,1.3,14.2,1.1a21.2,21.2,0,0,0,9-2.9c2.9-1.7,2.6-3.5-.3-5.2l-2.8-1.7c11.2,2.8,14.1,1.7,20.8-7.9a13,13,0,0,1,2.6-3.1,12,12,0,0,1,4.6-2.4c4.1-.7,8.4-.8,12.5-1.6a34.4,34.4,0,0,0,10.5-3.1c6.8-3.6,13.4-7.7,19.9-12s6-10.1,2.4-15.3c-1.4-2-2.6-4.2-3.8-6.3-3.1-5.4-6.4-10.4-12.3-13.3-4-1.9-4-2.9-2.7-7.3a27.8,27.8,0,0,0,1.1-10.7c-.2-1.8-2.5-4.5-4.2-4.8-6.6-1.2-13.4-1.1-18.6,3.9a10.4,10.4,0,0,0-2.8,7c.1,3,3.2,3.8,5.9,4.3l2,.3c-7.2.1-12.5,3.2-17,7.4a19.9,19.9,0,0,0-5.9,12.8c-.5,4.6,1.6,6.2,6,5.3s11.1-2.3,16.3.5,8.1,4.2,12.7,4.6c-4.1-.4-8.1-1.4-12.2-2.1s-8.3-1.5-12.4-1.3-8,4.6-8.9,10.6c-.4,2.8-1.6,5.5-2.5,8.2l-1.2-.4c.6-2.1,1.1-4.2,1.7-6.2s-.1-2.9-1.8-2.7c-3.8.3-6.2-1.8-8.6-4.3-4.3-4.6-6.8-5-12.3-1.8-14.7,8.2-24.8,19.8-25.7,37.5-.2,3.4.5,6.8-2.6,9.4a2.7,2.7,0,0,0-.5,2.2c.3,6.5.6,13,1.3,19.5s4.6,10.3,10.4,10.8a12.6,12.6,0,0,0,7.4-1.4c1.9-1.1,3.1-3.7,4.2-5,1.8,2.3,3.5,5.5,6.1,7.4A58.4,58.4,0,0,0,63.1,164c7.7,1.5,14.8.1,20.2-6.5a124.5,124.5,0,0,1,8.9-8.9c2-1.9,4.2-3.4,6.1-5.3s1.5-3.3-1.1-4c-7.7-2.1-12.2-7.6-15.4-14.4,1.7,1.3,3.3,2.9,5,4.2a41.4,41.4,0,0,0,5.5,3.8c4.2,2.4,9.4,1.9,11.5-1.5s4.5-8.3,6.6-12.6a15.1,15.1,0,0,0,.9-4.8c.1-2.4,0-4.9,0-7.3,2.1,5.2,3.4,10.3.8,15.6-1.1,2.1-2.7,4.1-3.1,6.3s.5,4,1.4,5.7,2.5.1,3.9-.1a31,31,0,0,1,4.2-.8c4.7.1,9.4.2,14.1.6,7.3.6,13-2.2,16.9-8.4,1.4-2.1,2.6-4.4,3.9-6.6a5.2,5.2,0,0,0-.2,1.7c.4,1.7.4,3.9,1.5,5s3.2-.2,4.6-1c6.8-4,13.4-8.2,20.2-12.2s11.1-9.6,7.2-17.6c-2-4-1.5-6.4-.1-8.9.2,10.2,4.9,17.2,14.3,19.9,6.7,2,13.5,1.3,19.4-3.1s7-8.5,8.9-13.8c1.1-3.2,2-6.3,3.1-9.5-.2,3.1-1.5,6.1-1.2,8.9.5,5.6-2.4,9-6.1,12.3-1.5,1.3-2.9,2.7-4.3,4.1-3,3.2-2.9,4.3.2,7.1s4.4,5.4,4.2,8.3c-3.3-7.1-9.3-8.7-16.1-9-2.7-.1-5.4,0-8.1-.3-7-.8-13.6.3-19.4,4.3-9.8,6.9-19.1,14.3-29,20.8-6.1,4-11.1,8.4-13.5,15.4s-3.4,12.8-.6,19.2,3.9,5.4,8.6,2.1c-3.1,3.8-6.2,7-3.1,12.1-5.5-1.9-10-.2-14.6,1.9a36.1,36.1,0,0,1,6-3.5c4.3-2.1,5-3.8,3-8.2l-1.4-3c-3.1-5.8-2.9-11.7-1.2-17.8a78,78,0,0,0,2.6-10.6c.1-1.4-.9-3.7-2-4.2s-4.5-1.1-6.8-1.4c-9.6-1.2-17.8,2.3-25,8.2s-11.8,10.5-17.8,15.6c-12.9,10.9-10.7,27.6-1,37.9,3.3,3.5,7.4,6.2,11.4,9.6a54.5,54.5,0,0,0-6.2-1.9,21.2,21.2,0,0,0-4.3.3c.1,1.5-.3,3.5.5,4.7a22.4,22.4,0,0,0,5,5.2c6.7,5.4,14.6,7.5,22.9,9.2,12.2,2.6,24.2,2,36.1-.5a147.3,147.3,0,0,0,34.1-12.1,9.3,9.3,0,0,0,2.1-1.9,9.6,9.6,0,0,0-1.7-1.8A26.7,26.7,0,0,1,175.3,199a3.8,3.8,0,0,0-3.1-1.8,66,66,0,0,0-11.8,3.1c-3.9,1.6-6.2,4.7-5.9,9.2a25.6,25.6,0,0,1-.3,3.9c-2.6-8.4-3.2-8.8-13.9-9.1a21.5,21.5,0,0,1,2.5-1.1c5.3-1.5,10.6-3.1,16-4.4s9.9-5.8,9.4-12.7l.3-.4c1.9,7.7,5,8.6,11.2,9.6s10-2,11.8-8c.8,6.5,3.9,9.3,10.1,9,1.8-.2,3.9-.3,5.5-1.2,7.5-4.2,14.1-2.4,20.8,2.1a23.9,23.9,0,0,0,10.2,3.8c7.3.7,14.7.8,22,.8s13.7-4.7,17.3-11.6,1.5-12.9.4-19.6-3.6-6.5-8.4-6a33,33,0,0,1-18.8-3.4c-4.3-2.3-8.9-2.8-13.5-.5a53.6,53.6,0,0,1-5.4,2.6c-3.4,1.2-6.8,2.1-10.3,3.2,7.8-4.1,16.5-6.3,20-15.8-.2,3.7,1.5,5.8,4.9,6.8s4.1,1.6,6.2,2.3c7.3,2.4,14.6,4.7,22.6,2.9,3.3-.8,6.8-.8,10.5-1.2a47.9,47.9,0,0,0-4.5,2.5c-.8.5-1.8,1.3-1.9,2.1-.2,4.5-1.4,9.3,2.2,13s8.6,4.8,13.6,3.7a124.7,124.7,0,0,0,12.9-3.7c.3-.5.2-.2,0,0a25,25,0,0,1-23.8,5.5,3.5,3.5,0,0,0-3,1c-1.7,3.1-2.9,6.4-4.4,9.6-2.4,4.8-1,9.8,3.7,12.3,9.8,5.1,20.2,5.8,30.7,2.7a22.1,22.1,0,0,0,12.6-9.4c1-1.3,1.6-3.8,1-5s-3.4-3.2-4.7-2.8c-4.7,1.3-10.1,1.4-12.9,6.7-.8,1.5-2.6,2.4-3.9,3.5,2.9-5.1,2.9-5.4-1.4-7.6a17.4,17.4,0,0,0,13.9-3.4,2.9,2.9,0,0,1,2.6-.2c3.6,1.5,10.1-1,12.3-4s2.2-7.5,0-11.3c-.7-1.2-1.6-2.4-2.4-3.5a8.7,8.7,0,0,1,2.7,1.5c1.1.5,3,1.6,3.4,1.2a7.4,7.4,0,0,0,2-3.8,36.4,36.4,0,0,0,.4-5.7,15.9,15.9,0,0,0-9.5-15.9c-3.1-1.5-4.2-.9-4.5,2.4a39.9,39.9,0,0,1-.7,4.7c-.7-2.6-1-5.9-2.4-8.5a5.1,5.1,0,0,1-.2-5.7c2.5-4.9,4.4-10.2.7-15.4a40.2,40.2,0,0,0-3.4-3.8l2.2-2.3c4.2-4.6,6.4-9.8,5.9-16.1s-4.3-11.2-8.9-12.7-9,.8-12.9,6.2a86.9,86.9,0,0,1-6.1,7.5c-2.6,2.8-6,3.3-9.6,2.1s-5.1-3.7-5.5-7.3c-.5-5.5-1.2-11-1.8-16.5a3.5,3.5,0,0,1,.7.9c.4,1.2.8,2.3,1.1,3.5,1,3.4,2.2,4,5.2,2.1s3.6-3.2,5.6-4.9c0,3.6-2.9,4.6-5.1,6s-3.9,4.6-3,8.2,3.5,4.5,6.6,4.5c5.1.1,8.6-3.1,9.8-8.4s3-8.3,8.9-7.7a2.9,2.9,0,0,0,1.3,0c3.2-.4,4.5-2.9,2.6-5.4-7-9.4-13.7-19.1-26.9-20.5-4.7-.6-9.3-2.1-14-2.5a5.2,5.2,0,0,0-5.8,5.5c.9,11.3-2.4,22-3.8,33-1.7,13.3,2.9,24.6,13.8,31.4,6.1,3.8,13.3,3.8,18.6-.5h-.1a4.1,4.1,0,0,1-.2,1.6l-7.3,9.3a18.8,18.8,0,0,1,.5-2c1.3-4,.4-5.4-3.9-5.3a18.6,18.6,0,0,1-13.4-4.9,94.6,94.6,0,0,1-7.5-8c-2.8-3.3-4.5-3.3-6.8.4-.6.8-.9,1.8-1.4,2.6L247,138.3l-5.2,8.6c-.4-2.3-1.7-3.8-5-2.5s-4.1.7-6.2,1.1c13.3-6.3,20.1-17.6,25.4-30.3,4.3-10.3,6.3-21.1,7.1-32.1.5-7.5,1.8-15.2-1.8-22.4a80.4,80.4,0,0,0-4.3-7.5l.6-.6c1.9,1.8,3.8,3.6,5.5,5.5s3.1,2.7,5.6,2.2a87.8,87.8,0,0,1,8.8-1c2.6-.2,5.2-.4,6.2-3.1a6.9,6.9,0,0,0-1.8-7.4L277.2,44c-3.1-3-6.1-6.2-9.4-8.9-5.1-4.3-10.4-2.7-12.6,3.5l-.9,2.2-1.1-.3c.8-3.5,1.4-7.1,2.4-10.5s-.3-6.1-4.1-5.3a22.6,22.6,0,0,0-7.2,3.4c-5.2,3.5-10,2.7-13.8-2.6,4.2,2.5,8.7,4.2,13.4,1.3,1.3-.8,3.3-2.3,3.2-3.2a6.2,6.2,0,0,0-3.1-4.1c-9.1-4.1-18.3-4.2-27.3.3a11.1,11.1,0,0,0-4.1,4.5c-.7,1.6-1.3,2.2-3,2.4a42.1,42.1,0,0,0-21.9,9c-6.7,5.6-6.7,8,0,13.4,1.2,1,2.9,3.1,2.6,3.8a7.6,7.6,0,0,1-4.2,3.7,65.9,65.9,0,0,1-10,2.2C170,60,164.5,62.3,161.7,68a171.4,171.4,0,0,0-9.9,22.4c-2.5,7.4-2.5,15,3.5,21.4.6.5.6,2.1.3,3A30.9,30.9,0,0,1,153.3,119.2ZM51.1,42.6l.5,1c-4.7,2.5-9.9,4.4-12.1,9.9a2,2,0,0,1-1.4.9c-9.2,2.4-14.5,9.5-19.5,16.7a21,21,0,0,0-3.7,7.3,5.6,5.6,0,0,0,1.9,5c1.6,1.3,3.8,1,5.6-1A35.2,35.2,0,0,1,36.8,71.9c4.2-1.6,8.5-3.6,12.9-.3l3.6,3c1.9,1.5,4.1,2,5.7.2s2.7-4.1,2.3-5.7a11.9,11.9,0,0,0-4.6-6.6c-2.9-1.8-6.6-2.5-9.2-3.3a16.2,16.2,0,0,1,2.4-.3c6,0,10.5-2.7,14-7.5a29.5,29.5,0,0,1,5.2-4.7c5.8-4.6,6.6-7.9,3.5-14.9,7.6-.6,10.3-6.5,13.1-12.2,1.2-2.3-.5-4.2-3-3.3s-8.2,2.8-11.8,5.1c-11,6.9-21.7,14.3-32.4,21.5a23.3,23.3,0,0,0-5.2,4.7c-1.1,1.4-3.4,3.2-1.3,5.2s4,.7,5.7-.8,3.7-3.3,5.7-4.7S48.5,44.2,51.1,42.6Zm139,204.3a29.1,29.1,0,0,1,2.6,2.9c7.8,9,15.5,18,23.4,27a55.3,55.3,0,0,0,7.6,7.7c1.2.9,3.8.9,5.2.2,6.7-3,7.2-6.5,2.9-12.5a129.6,129.6,0,0,1-9.8-15.1c-1.4-2.7-2.6-4.2-5.9-4-4.9.3-10-.3-13.2-4.3S195.1,245.4,190.1,246.9Zm13-36.8v.9c6-.8,12.1-1.6,18.1-2.6a13.8,13.8,0,0,0,5.4-2.4c3.1-1.9,3.1-4.5.2-6.7-1.4-1-2.9-1.7-4.2-2.8-4.4-3.7-6.2-3.9-11.3-.9s-8.5,3.6-13.4,2.6a98.7,98.7,0,0,0-12.1-2.1c-3.8-.2-6,3.3-3.9,6.6a44.5,44.5,0,0,0,6.9,7.5,5,5,0,0,0,3.6,1.1C196.1,211.1,199.6,210.5,203.1,210.1ZM335,142.7c-1.2-5.8-2.6-13.5-4.6-20.9-1.3-4.8-4.4-5.1-7.8-1.5a13.3,13.3,0,0,0-2,2.2c-.4.8-.8,2.1-.4,2.6,3.7,5.9,3.5,11.7.5,17.8-.7,1.6-.7,2.9,1.6,3.4a39.1,39.1,0,0,1,6.5,2.4C332.9,150.3,335.1,148.9,335,142.7Zm-92,71.5c-2.1,0-4.4-.4-6.3.1s-1.9,2.2-2.9,3.4a15.5,15.5,0,0,0,2.8,1.5c7.2.8,14.5.9,21.6,2.2s16.5,3.8,23.3,9.2c1.8,1.4,3,1.5,4.3-.4s2.4-3.6-.1-5.1a49.6,49.6,0,0,0-9.3-5.1C265.6,216.2,254.4,214.6,243,214.2Zm19.7,27.6-5.5-2.6c-6.8-3.1-13.3-6.8-18.4-12.4s-6.2-6.8-12.4.1l-.6,1C230.9,233.9,255.5,245.6,262.7,241.8Zm-23.5-19.4c.7,1,1.3,2.1,2,2.9,5.1,5.5,11.5,9,18.3,12a66.6,66.6,0,0,0,10.6,3.7c1.1.3,2.5-.7,3.8-1.2-.8-.9-1.3-2.1-2.3-2.6-5.8-2.7-11.2-6-15.5-10.8S245.2,220.4,239.2,222.4Zm4.5-12.3v1l1.8.6c6,.7,12.1,1.3,18.1,2.2,8.1,1.3,15.8,3.7,22.7,8.2,2.3,1.5,3.2,1.2,3.8-1.6s-.1-4.1-2.9-5.3a116.7,116.7,0,0,0-28.3-7.3C253.7,207.3,248.7,208.7,243.7,210.1Zm13.2,35.3a9,9,0,0,0-1.8-1,69.5,69.5,0,0,1-21.1-7.7c-3.3-1.8-6.5-3.9-9.8-5.5-.9-.5-2.4.2-3.6.4a10.8,10.8,0,0,0,.7,3.1,30.8,30.8,0,0,0,2.5,2.7c8.4,9.3,19.2,10.7,30.9,9.1C255.2,246.5,255.8,246,256.9,245.4ZM7.3,124.4l.7-.2.6-3.4c1.3-6.6,2.7-13.2,4-19.8.8-3.9,2-7.8,2.5-11.7.1-1.1-1.3-2.5-1.9-3.7-1,.6-2.5.9-2.9,1.7C5.4,98.4,3.1,109.8,6,121.9,6.3,122.7,6.9,123.5,7.3,124.4ZM202.7,234l.4,1.1a9.3,9.3,0,0,0,2.4-.2c6.3-2.6,12.2-5.9,16.9-11a51.8,51.8,0,0,0,6-8.7,2.8,2.8,0,0,0-.7-2.5c-3.1-1.3-7.7,1.1-9.1,4.2-2.5,5.5-5.8,10.4-11.2,13.7C205.8,231.6,204.3,232.9,202.7,234Zm-28-8.5c1,6.1,12.7,14.3,19.7,14,.1-.3.2-.6.1-.7l-7.4-10.3c-4.6-6.6-4.6-6.6-12.2-3.2C174.8,225.3,174.8,225.5,174.7,225.5Zm18.7,5.1v1.3c1.1.4,2.4,1.3,3.2,1,8.7-2.9,15.5-8.1,19.3-16.6.2-.6-.8-2.5-1.2-2.5-2.3.1-4.6,0-6.2,2.4C204.7,222.1,200.9,228.3,193.4,230.6Zm65-6.5-.8.8a16.1,16.1,0,0,0,2.1,3,37.3,37.3,0,0,0,5,3.9c3.3,1.8,6.6,3.6,10,5.2s4.5.8,5.5-1.4-.9-3-2-3.8A47.2,47.2,0,0,0,258.4,224.1Zm-93.7,4.5c2.8,9.4,18.1,16.1,24.4,13l-4.6-2.4c-5-2.4-9.4-5.6-12-10.5-1.2-2.2-2.5-2.3-4.3-1.7S165.9,228.1,164.7,228.6Zm54.6,20.5a4.5,4.5,0,0,0-.3-1.1c-2.6-3.2-5.2-6.3-8-9.3a2.9,2.9,0,0,0-2.5-.8,24.7,24.7,0,0,0-6,1.9c-.7.4-1.4,2-1.1,2.6C203.9,247.8,213.7,251.4,219.3,249.1Zm-14.2-34a23.9,23.9,0,0,0-4.7.8,44.8,44.8,0,0,0-8,3.7c-2.8,1.8-3.1,5.3-.8,7.9s4.1.4,5.7-.9A19.9,19.9,0,0,0,205.1,215.1Zm25.1,34.1,2-1a8.3,8.3,0,0,0-1.6-2.1c-1.8-1.6-3.9-2.9-5.7-4.5s-4.5-4.3-7-6.2a3.7,3.7,0,0,0-3.1,0,2.4,2.4,0,0,0-1,2.3C215.3,242.5,224.6,249.3,230.2,249.2Z"/><path class="cls-1" d="M153.3,119.2a30.9,30.9,0,0,0,2.3-4.4c.3-.9.3-2.5-.3-3-6-6.4-6-14-3.5-21.4A171.4,171.4,0,0,1,161.7,68c2.8-5.7,8.3-8,14.4-9.2a65.9,65.9,0,0,0,10-2.2,7.6,7.6,0,0,0,4.2-3.7c.3-.7-1.4-2.8-2.6-3.8-6.7-5.4-6.7-7.8,0-13.4a42.1,42.1,0,0,1,21.9-9c1.7-.2,2.3-.8,3-2.4a11.1,11.1,0,0,1,4.1-4.5c9-4.5,18.2-4.4,27.3-.3a6.2,6.2,0,0,1,3.1,4.1c.1.9-1.9,2.4-3.2,3.2-4.7,2.9-9.2,1.2-13.4-1.3,3.8,5.3,8.6,6.1,13.8,2.6a22.6,22.6,0,0,1,7.2-3.4c3.8-.8,5.2,1.5,4.1,5.3s-1.6,7-2.4,10.5l1.1.3.9-2.2c2.2-6.2,7.5-7.8,12.6-3.5,3.3,2.7,6.3,5.9,9.4,8.9l4.7,4.8a6.9,6.9,0,0,1,1.8,7.4c-1,2.7-3.6,2.9-6.2,3.1a87.8,87.8,0,0,0-8.8,1c-2.5.5-4-.6-5.6-2.2s-3.6-3.7-5.5-5.5l-.6.6a80.4,80.4,0,0,1,4.3,7.5c3.6,7.2,2.3,14.9,1.8,22.4-.8,11-2.8,21.8-7.1,32.1-5.3,12.7-12.1,24-25.4,30.3,2.1-.4,4.3-.4,6.2-1.1s4.6.2,5,2.5l5.2-8.6,8.5-14.3c.5-.8.8-1.8,1.4-2.6,2.3-3.7,4-3.7,6.8-.4a94.6,94.6,0,0,0,7.5,8,18.6,18.6,0,0,0,13.4,4.9c4.3-.1,5.2,1.3,3.9,5.3a18.8,18.8,0,0,0-.5,2l7.3-9.3a7.6,7.6,0,0,0,.3-1.6,4.3,4.3,0,0,0,1.6.1c4.9-.9,6.4-.2,6.3,4.7a92.4,92.4,0,0,1-2,14.8,104.2,104.2,0,0,1-3.1,10.5c8.1-13.1,9.5-27,5.4-41.6a19.1,19.1,0,0,0-1.6,3.2c-1.6,3.3-2.7,6.9-6.6,8.3-5.3,4.3-12.5,4.3-18.6.5-10.9-6.8-15.5-18.1-13.8-31.4,1.4-11,4.7-21.7,3.8-33a5.2,5.2,0,0,1,5.8-5.5c4.7.4,9.3,1.9,14,2.5,13.2,1.4,19.9,11.1,26.9,20.5,1.9,2.5.6,5-2.6,5.4a2.9,2.9,0,0,1-1.3,0c-5.9-.6-7.5,1.2-8.9,7.7s-4.7,8.5-9.8,8.4c-3.1,0-5.9-2-6.6-4.5s.1-6.2,3-8.2,5.1-2.4,5.1-6c-2,1.7-3.6,3.6-5.6,4.9s-4.2,1.3-5.2-2.1c-.3-1.2-.7-2.3-1.1-3.5a3.5,3.5,0,0,0-.7-.9c.6,5.5,1.3,11,1.8,16.5.4,3.6,2.2,6.2,5.5,7.3s7,.7,9.6-2.1a86.9,86.9,0,0,0,6.1-7.5c3.9-5.4,8.4-7.6,12.9-6.2s8.5,7.1,8.9,12.7-1.7,11.5-5.9,16.1l-2.2,2.3a40.2,40.2,0,0,1,3.4,3.8c3.7,5.2,1.8,10.5-.7,15.4a5.1,5.1,0,0,0,.2,5.7c1.4,2.6,1.7,5.9,2.4,8.5a39.9,39.9,0,0,0,.7-4.7c.3-3.3,1.4-3.9,4.5-2.4a15.9,15.9,0,0,1,9.5,15.9,36.4,36.4,0,0,1-.4,5.7,7.4,7.4,0,0,1-2,3.8c-.4.4-2.3-.7-3.4-1.2a8.7,8.7,0,0,0-2.7-1.5c.8,1.1,1.7,2.3,2.4,3.5,2.2,3.8,2.7,7.5,0,11.3s-8.7,5.5-12.3,4a2.9,2.9,0,0,0-2.6.2,17.4,17.4,0,0,1-13.9,3.4c4.3,2.2,4.3,2.5,1.4,7.6,1.3-1.1,3.1-2,3.9-3.5,2.8-5.3,8.2-5.4,12.9-6.7,1.3-.4,3.9,1.3,4.7,2.8s0,3.7-1,5a22.1,22.1,0,0,1-12.6,9.4c-10.5,3.1-20.9,2.4-30.7-2.7-4.7-2.5-6.1-7.5-3.7-12.3,1.5-3.2,2.7-6.5,4.4-9.6a3.5,3.5,0,0,1,3-1,25,25,0,0,0,23.8-5.5c.2-.2.3-.5,0,0a124.7,124.7,0,0,1-12.9,3.7c-5,1.1-9.9.1-13.6-3.7s-2.4-8.5-2.2-13c.1-.8,1.1-1.6,1.9-2.1a47.9,47.9,0,0,1,4.5-2.5c-3.7.4-7.2.4-10.5,1.2-8,1.8-15.3-.5-22.6-2.9-2.1-.7-4.1-1.7-6.2-2.3s-5.1-3.1-4.9-6.8c-3.5,9.5-12.2,11.7-20,15.8,3.5-1.1,6.9-2,10.3-3.2a53.6,53.6,0,0,0,5.4-2.6c4.6-2.3,9.2-1.8,13.5.5a33,33,0,0,0,18.8,3.4c4.8-.5,7.4.5,8.4,6s2.9,13.3-.4,19.6-9,11.7-17.3,11.6-14.7-.1-22-.8a23.9,23.9,0,0,1-10.2-3.8c-6.7-4.5-13.3-6.3-20.8-2.1-1.6.9-3.7,1-5.5,1.2-6.2.3-9.3-2.5-10.1-9-1.8,6-6,8.9-11.8,8s-9.3-1.9-11.2-9.6l-.3.4c.5,6.9-2.5,11.2-9.4,12.7s-10.7,2.9-16,4.4a21.5,21.5,0,0,0-2.5,1.1c10.7.3,11.3.7,13.9,9.1a25.6,25.6,0,0,0,.3-3.9c-.3-4.5,2-7.6,5.9-9.2a66,66,0,0,1,11.8-3.1,3.8,3.8,0,0,1,3.1,1.8,26.7,26.7,0,0,0,10.3,11.5,9.6,9.6,0,0,1,1.7,1.8,9.3,9.3,0,0,1-2.1,1.9,147.3,147.3,0,0,1-34.1,12.1c-11.9,2.5-23.9,3.1-36.1.5-8.3-1.7-16.2-3.8-22.9-9.2a22.4,22.4,0,0,1-5-5.2c-.8-1.2-.4-3.2-.5-4.7a21.2,21.2,0,0,1,4.3-.3,54.5,54.5,0,0,1,6.2,1.9c-4-3.4-8.1-6.1-11.4-9.6-9.7-10.3-11.9-27,1-37.9,6-5.1,11.7-10.6,17.8-15.6s15.4-9.4,25-8.2c2.3.3,4.8.4,6.8,1.4s2.1,2.8,2,4.2a78,78,0,0,1-2.6,10.6c-1.7,6.1-1.9,12,1.2,17.8l1.4,3c2,4.4,1.3,6.1-3,8.2a36.1,36.1,0,0,0-6,3.5c4.6-2.1,9.1-3.8,14.6-1.9-3.1-5.1,0-8.3,3.1-12.1-4.7,3.3-6.5,2.8-8.6-2.1s-1.7-12.9.6-19.2,7.4-11.4,13.5-15.4c9.9-6.5,19.2-13.9,29-20.8,5.8-4,12.4-5.1,19.4-4.3,2.7.3,5.4.2,8.1.3,6.8.3,12.8,1.9,16.1,9,.2-2.9-1.2-5.5-4.2-8.3s-3.2-3.9-.2-7.1c1.4-1.4,2.8-2.8,4.3-4.1,3.7-3.3,6.6-6.7,6.1-12.3-.3-2.8,1-5.8,1.2-8.9-1.1,3.2-2,6.3-3.1,9.5-1.9,5.3-4.2,10.4-8.9,13.8s-12.7,5.1-19.4,3.1c-9.4-2.7-14.1-9.7-14.3-19.9-1.4,2.5-1.9,4.9.1,8.9,3.9,8-.6,13.6-7.2,17.6s-13.4,8.2-20.2,12.2c-1.4.8-4,1.6-4.6,1s-1.1-3.3-1.5-5a5.2,5.2,0,0,1,.2-1.7Zm44.9,51,.2-.4c-1.4-.7-2.8-1.6-4.2-2.2-3.7-1.5-7.6-2.6-11.1-4.6-1.6-.9-3.6-3.4-3.4-5s2.3-3.7,4.1-4.6c7.5-3.9,15.9-4.8,24.1-6.3-7.4.5-14.7,1.3-22,2.5-4.9.8-9.6,1.1-14.3-1-2.8-1.2-6-1.7-9-2.5,13.7,7.7,19.7,18.8,16.1,34.6a27.3,27.3,0,0,0,1.1-4,29.1,29.1,0,0,1,1.2-3.9c1.4-4.3,3-5.5,7.6-4.9S195,169.5,198.2,170.2Zm-102,11.6c5.2,2.8,9.7,5.7,9.9,12.3,0,.6.5,1,.7,1.5,2.9,7.8,9.3,14.1,9.2,22.5l6.8-4.5c-8.6-6-13-11.1-13.1-17.6a184.9,184.9,0,0,1,1.4-20.9,15.8,15.8,0,0,1,6.8-11.4,23.1,23.1,0,0,0,2.4-2.9c-1.7.7-3.1,1.9-4.6,2.6a10.5,10.5,0,0,0-6.1,7.9c-.6,2.4-1.3,4.9-1.7,7.3-.8,4.1-2.5,5.1-6.4,4.1A45.1,45.1,0,0,0,96.2,181.8ZM236.9,46.2v-.9c-4.2.2-8.5,0-12.6.8s-8.5,2.1-11.6-1.1c.7,1.7,2.5,3.9,2.3,5.8-.7,6.3-4.4,11.1-9,15.2s-7.3,2-11.1,1.3-12.2.6-15.1,4.3c1.8-.6,3.3-1.3,4.9-1.7a20.7,20.7,0,0,1,5-.5c8.6-.2,9.6.9,9.9,9.3a53.6,53.6,0,0,0,1,7h.9c-1.7-7.2.8-13.1,5.1-18.5s9-10.4,13.1-15.9a12.1,12.1,0,0,1,9.9-5.1ZM245.6,184c-.8-2,0-4.2,2.6-6.2l-19.3,5.6h7.3Z"/><path class="cls-1" d="M153.4,119c-1.3,2.2-2.5,4.5-3.9,6.6-3.9,6.2-9.6,9-16.9,8.4-4.7-.4-9.4-.5-14.1-.6a31,31,0,0,0-4.2.8c-1.4.2-3.7.6-3.9.1s-1.7-3.9-1.4-5.7,2-4.2,3.1-6.3c2.6-5.3,1.3-10.4-.8-15.6,0,2.4.1,4.9,0,7.3a15.1,15.1,0,0,1-.9,4.8c-2.1,4.3-4.2,8.6-6.6,12.6s-7.3,3.9-11.5,1.5a41.4,41.4,0,0,1-5.5-3.8c-1.7-1.3-3.3-2.9-5-4.2,3.2,6.8,7.7,12.3,15.4,14.4,2.6.7,3,2.1,1.1,4s-4.1,3.4-6.1,5.3a124.5,124.5,0,0,0-8.9,8.9c-5.4,6.6-12.5,8-20.2,6.5a58.4,58.4,0,0,1-23.9-10.5c-2.6-1.9-4.3-5.1-6.1-7.4-1.1,1.3-2.3,3.9-4.2,5a12.6,12.6,0,0,1-7.4,1.4c-5.8-.5-9.7-4.6-10.4-10.8s-1-13-1.3-19.5a2.7,2.7,0,0,1,.5-2.2c3.1-2.6,2.4-6,2.6-9.4.9-17.7,11-29.3,25.7-37.5,5.5-3.2,8-2.8,12.3,1.8,2.4,2.5,4.8,4.6,8.6,4.3,1.7-.2,2.3,1,1.8,2.7s-1.1,4.1-1.7,6.2l1.2.4c.9-2.7,2.1-5.4,2.5-8.2.9-6,3.9-10.3,8.9-10.6s8.3.7,12.4,1.3,8.1,1.7,12.2,2.1c-4.6-.4-8.6-2.4-12.7-4.6S73.2,66.8,67.8,68s-6.5-.7-6-5.3a19.9,19.9,0,0,1,5.9-12.8c4.5-4.2,9.8-7.3,17-7.4l-2-.3c-2.7-.5-5.8-1.3-5.9-4.3a10.4,10.4,0,0,1,2.8-7c5.2-5,12-5.1,18.6-3.9,1.7.3,4,3,4.2,4.8a27.8,27.8,0,0,1-1.1,10.7c-1.3,4.4-1.3,5.4,2.7,7.3,5.9,2.9,9.2,7.9,12.3,13.3,1.2,2.1,2.4,4.3,3.8,6.3,3.6,5.2,2.9,11.8-2.4,15.3s-13.1,8.4-19.9,12a34.4,34.4,0,0,1-10.5,3.1c-4.1.8-8.4.9-12.5,1.6a12,12,0,0,0-4.6,2.4,13,13,0,0,0-2.6,3.1c-6.7,9.6-9.6,10.7-20.8,7.9l2.8,1.7c2.9,1.7,3.2,3.5.3,5.2a21.2,21.2,0,0,1-9,2.9c-4.8.2-9.7-.7-14.2-1.1,2.4,2.4,6,3.1,9.5,3.5a15.9,15.9,0,0,1,12.1,8c4.8,7.9,12.1,10.6,21.1,10.3L59.9,141a17.5,17.5,0,0,1-2.9-1.8c-7.1-5.5-7-12.8.5-17.8,4.4-2.8,8.3-5.9,10.6-10.8s8.6-7.1,14.1-7.9a108.7,108.7,0,0,0,25.3-6.8c10.1-4,16.2-1.9,20.4,6.7a1.5,1.5,0,0,0,1.4.9c-1.4-2.7-2.8-5.4-4.3-8.1s-3.3-6.2-1.5-10.3a19.8,19.8,0,0,0,.5-14c-1.3-4.3-.2-6.7,3.8-8.9,5.7-3,11.5-5.8,17.2-8.7a2.7,2.7,0,0,0,1.3-1.6,56,56,0,0,1-5.4,1.7c-6.1,1.3-9.8-1.3-9.7-7.6.1-4.1,1.4-8.2,2.1-12.4a14.1,14.1,0,0,0-.4-6.1c-1.2,5.1-2.7,10.1-3.6,15.2a23.2,23.2,0,0,0,.3,8.3c.9,4.2.1,6.6-3.4,8.6A8.9,8.9,0,0,1,116,58.3q-4.6-4.8-9.6-9.3c-3.6-3.3-4.1-6.4-1.5-11.7.7-1.4,1.6-2.6,1.9-3.2s-2.2-2.1-2.5-3.1c-.9-3.6-3.6-5-6.6-5.9s-4.6-.2-6.9-.5-3.5-.5-4.1-1.5.2-2.9.9-4.1c2.4-4.5,7.2-5.1,11.5-6.4,6.7-1.8,13.3-3.5,20-5a52.9,52.9,0,0,1,9.7-.8c2.2-.1,3,1.8,1.6,3.7a9.6,9.6,0,0,1-7.5,3.8,7.7,7.7,0,0,0-4.5,1.6l9.5-1.3c.7-.2,1.2-1.2,1.9-1.7,2.6-2.1,5-4.8,8-6.2,5.4-2.6,7.5-1.2,9.6,5.8.8-6.7,5.2-9.5,10.2-10.3A72.3,72.3,0,0,1,175,1.5a79.6,79.6,0,0,1,15.8,3.4c3.6,1.1,3.8,2.7,1.5,7,3.4-.7,6.3-1.5,9.1-1.9a112.4,112.4,0,0,1,15.2-1.2c3.7.1,7,3.4,6.1,5.4s-4.4,2.9-7.1,3.1a8.5,8.5,0,0,1-2.2-.1c.4,6.9-5.1,7.7-9.6,9.1-7.2,2.1-14.4,4-20,9.3-1.8,1.7-3.5,3.5-5.3,5.3a41,41,0,0,1,2,4.9c1.6,5.8-.5,9.6-6.4,10.6s-11.5,3.1-16.1,7.3-6.4,7.6-7.2,12.5a188,188,0,0,0-2.9,22.4c-.2,3,1.4,6.5,3,9.3s3.6,7.1,2.4,11.3Zm11.1-86.9c3.5-5.2,6.9-10.4,10.4-15.5a46.8,46.8,0,0,0-5.3,5.6c-3.6,4.4-8.6,3.6-10.7-1.6-.5-1.3-.7-2.7-1.1-4a17.1,17.1,0,0,0-.5,5.9c.4,2.5-.2,3.9-3,3.8a30.3,30.3,0,0,0-4.2.6A21.2,21.2,0,0,1,164.5,32.1ZM45.4,94.5l-7.3-7.4c.1.6-.2,2.5.5,3.6,2.1,3,.2,3.9-1.9,5.3s-6.2,5-9.3,7.5l.3.2Z"/><path class="cls-1" d="M51.1,42.6c-2.6,1.6-5.3,3-7.7,4.7s-3.8,3.2-5.7,4.7-3.8,2.6-5.7.8.2-3.8,1.3-5.2a23.3,23.3,0,0,1,5.2-4.7c10.7-7.2,21.4-14.6,32.4-21.5,3.6-2.3,7.8-3.7,11.8-5.1s4.2,1,3,3.3c-2.8,5.7-5.5,11.6-13.1,12.2,3.1,7,2.3,10.3-3.5,14.9a29.5,29.5,0,0,0-5.2,4.7c-3.5,4.8-8,7.5-14,7.5a16.2,16.2,0,0,0-2.4.3c2.6.8,6.3,1.5,9.2,3.3a11.9,11.9,0,0,1,4.6,6.6c.4,1.6-1,4.1-2.3,5.7s-3.8,1.3-5.7-.2l-3.6-3c-4.4-3.3-8.7-1.3-12.9.3A35.2,35.2,0,0,0,22.4,82.4c-1.8,2-4,2.3-5.6,1a5.6,5.6,0,0,1-1.9-5,21,21,0,0,1,3.7-7.3c5-7.2,10.3-14.3,19.5-16.7a2,2,0,0,0,1.4-.9c2.2-5.5,7.4-7.4,12.1-9.9Z"/><path class="cls-1" d="M190.1,246.9c5-1.5,9-2.8,12.8,1.9s8.3,4.6,13.2,4.3c3.3-.2,4.5,1.3,5.9,4a129.6,129.6,0,0,0,9.8,15.1c4.3,6,3.8,9.5-2.9,12.5-1.4.7-4,.7-5.2-.2a55.3,55.3,0,0,1-7.6-7.7c-7.9-9-15.6-18-23.4-27A29.1,29.1,0,0,0,190.1,246.9Z"/><path class="cls-1" d="M203.1,210.1c-3.5.4-7,1-10.6,1.2a5,5,0,0,1-3.6-1.1,44.5,44.5,0,0,1-6.9-7.5c-2.1-3.3.1-6.8,3.9-6.6a98.7,98.7,0,0,1,12.1,2.1c4.9,1,9.2-.2,13.4-2.6s6.9-2.8,11.3.9c1.3,1.1,2.8,1.8,4.2,2.8,2.9,2.2,2.9,4.8-.2,6.7a13.8,13.8,0,0,1-5.4,2.4c-6,1-12.1,1.8-18.1,2.6Z"/><path class="cls-1" d="M335,142.7c.1,6.2-2.1,7.6-6.2,6a39.1,39.1,0,0,0-6.5-2.4c-2.3-.5-2.3-1.8-1.6-3.4,3-6.1,3.2-11.9-.5-17.8-.4-.5,0-1.8.4-2.6a13.3,13.3,0,0,1,2-2.2c3.4-3.6,6.5-3.3,7.8,1.5C332.4,129.2,333.8,136.9,335,142.7Z"/><path class="cls-1" d="M243,214.2c11.4.4,22.6,2,33.4,5.8a49.6,49.6,0,0,1,9.3,5.1c2.5,1.5,1.3,3.3.1,5.1s-2.5,1.8-4.3.4c-6.8-5.4-15.1-7.6-23.3-9.2s-14.4-1.4-21.6-2.2a15.5,15.5,0,0,1-2.8-1.5c1-1.2,1.7-3,2.9-3.4S240.9,214.2,243,214.2Z"/><path class="cls-1" d="M262.7,241.8c-7.2,3.8-31.8-7.9-36.9-13.9l.6-1c6.2-6.9,6.3-6.9,12.4-.1s11.6,9.3,18.4,12.4Z"/><path class="cls-1" d="M239.2,222.4c6-2,13.2,0,16.9,4s9.7,8.1,15.5,10.8c1,.5,1.5,1.7,2.3,2.6-1.3.5-2.7,1.5-3.8,1.2a66.6,66.6,0,0,1-10.6-3.7c-6.8-3-13.2-6.5-18.3-12C240.5,224.5,239.9,223.4,239.2,222.4Z"/><path class="cls-1" d="M243.7,210.1c5-1.4,10-2.8,15.2-2.2a116.7,116.7,0,0,1,28.3,7.3c2.8,1.2,3.4,2.7,2.9,5.3s-1.5,3.1-3.8,1.6c-6.9-4.5-14.6-6.9-22.7-8.2-6-.9-12.1-1.5-18.1-2.2l-1.8-.6Z"/><path class="cls-1" d="M45.6,162.7c-6.5,2.5-13.3,2.2-19.8,1.2-4.6-.8-7.1-5-9.9-9.8,3.8,0,6.9.2,9.9,0a21.2,21.2,0,0,1,16.4,5c1.2,1.1,2.2,2.5,3.3,3.7Z"/><path class="cls-1" d="M256.9,245.4c-1.1.6-1.7,1.1-2.2,1.1-11.7,1.6-22.5.2-30.9-9.1a30.8,30.8,0,0,1-2.5-2.7,10.8,10.8,0,0,1-.7-3.1c1.2-.2,2.7-.9,3.6-.4,3.3,1.6,6.5,3.7,9.8,5.5a69.5,69.5,0,0,0,21.1,7.7A9,9,0,0,1,256.9,245.4Z"/><path class="cls-1" d="M45.5,162.8c6.7,3.3,13.8,4.3,21.3,4.1,1.2,0,2.6,1.5,3.9,2.3-1.1,1.2-2,3-3.4,3.4a30.7,30.7,0,0,1-18-.1,23.5,23.5,0,0,1-4.7-1.5c-1.4-.7-3.3-1.8-3.5-2.9s1.5-2.5,2.5-3.7a8.2,8.2,0,0,1,2-1.7Z"/><path class="cls-1" d="M7.3,124.4c-.4-.9-1-1.7-1.3-2.5-2.9-12.1-.6-23.5,4.3-34.6.4-.8,1.9-1.1,2.9-1.7.6,1.2,2,2.6,1.9,3.7-.5,3.9-1.7,7.8-2.5,11.7-1.3,6.6-2.7,13.2-4,19.8L8,124.2Z"/><path class="cls-1" d="M202.7,234c1.6-1.1,3.1-2.4,4.7-3.4,5.4-3.3,8.7-8.2,11.2-13.7,1.4-3.1,6-5.5,9.1-4.2a2.8,2.8,0,0,1,.7,2.5,51.8,51.8,0,0,1-6,8.7c-4.7,5.1-10.6,8.4-16.9,11a9.3,9.3,0,0,1-2.4.2Z"/><path class="cls-1" d="M174.7,225.5c.1,0,.1-.2.2-.2,7.6-3.4,7.6-3.4,12.2,3.2l7.4,10.3c.1.1,0,.4-.1.7C187.4,239.8,175.7,231.6,174.7,225.5Z"/><path class="cls-1" d="M193.4,230.6c7.5-2.3,11.3-8.5,15.1-14.4,1.6-2.4,3.9-2.3,6.2-2.4.4,0,1.4,1.9,1.2,2.5-3.8,8.5-10.6,13.7-19.3,16.6-.8.3-2.1-.6-3.2-1Z"/><path class="cls-1" d="M258.4,224.1a47.2,47.2,0,0,1,19.8,7.7c1.1.8,2.4,3,2,3.8s-3.4,2.3-5.5,1.4-6.7-3.4-10-5.2a37.3,37.3,0,0,1-5-3.9,16.1,16.1,0,0,1-2.1-3Z"/><path class="cls-1" d="M164.7,228.6c1.2-.5,2.3-1.2,3.5-1.6s3.1-.5,4.3,1.7c2.6,4.9,7,8.1,12,10.5l4.6,2.4C182.8,244.7,167.5,238,164.7,228.6Z"/><path class="cls-1" d="M219.3,249.1c-5.6,2.3-15.4-1.3-17.9-6.7-.3-.6.4-2.2,1.1-2.6a24.7,24.7,0,0,1,6-1.9,2.9,2.9,0,0,1,2.5.8c2.8,3,5.4,6.1,8,9.3A4.5,4.5,0,0,1,219.3,249.1Z"/><path class="cls-1" d="M205.1,215.1a19.9,19.9,0,0,1-7.8,11.5c-1.6,1.3-3.5,3.3-5.7.9s-2-6.1.8-7.9a44.8,44.8,0,0,1,8-3.7A23.9,23.9,0,0,1,205.1,215.1Z"/><path class="cls-1" d="M230.2,249.2c-5.6.1-14.9-6.7-16.4-11.5a2.4,2.4,0,0,1,1-2.3,3.7,3.7,0,0,1,3.1,0c2.5,1.9,4.6,4.2,7,6.2s3.9,2.9,5.7,4.5a8.3,8.3,0,0,1,1.6,2.1Z"/><path d="M198.2,170.2c-3.2-.7-6.3-1.8-9.6-2.3s-6.2.6-7.6,4.9a29.1,29.1,0,0,0-1.2,3.9,27.3,27.3,0,0,1-1.1,4c3.6-15.8-2.4-26.9-16.1-34.6,3,.8,6.2,1.3,9,2.5,4.7,2.1,9.4,1.8,14.3,1,7.3-1.2,14.6-2,22-2.5-8.2,1.5-16.6,2.4-24.1,6.3-1.8.9-4,3-4.1,4.6s1.8,4.1,3.4,5c3.5,2,7.4,3.1,11.1,4.6,1.4.6,2.8,1.5,4.2,2.2Z"/><path d="M96.2,181.8a45.1,45.1,0,0,1,5.3.9c3.9,1,5.6,0,6.4-4.1.4-2.4,1.1-4.9,1.7-7.3a10.5,10.5,0,0,1,6.1-7.9c1.5-.7,2.9-1.9,4.6-2.6a23.1,23.1,0,0,1-2.4,2.9,15.8,15.8,0,0,0-6.8,11.4,184.9,184.9,0,0,0-1.4,20.9c.1,6.5,4.5,11.6,13.1,17.6l-6.8,4.5c.1-8.4-6.3-14.7-9.2-22.5-.2-.5-.7-.9-.7-1.5C105.9,187.5,101.4,184.6,96.2,181.8Z"/><path d="M236.9,46.2h-7.3a12.1,12.1,0,0,0-9.9,5.1c-4.1,5.5-8.8,10.6-13.1,15.9s-6.8,11.3-5.1,18.5h-.9a53.6,53.6,0,0,1-1-7c-.3-8.4-1.3-9.5-9.9-9.3a20.7,20.7,0,0,0-5,.5c-1.6.4-3.1,1.1-4.9,1.7,2.9-3.7,11.1-5,15.1-4.3S202.6,69,206,66s8.3-8.9,9-15.2c.2-1.9-1.6-4.1-2.3-5.8,3.1,3.2,7.3,1.9,11.6,1.1s8.4-.6,12.6-.8Z"/><path d="M295.6,130.3c3.9-1.4,5-5,6.6-8.3a19.1,19.1,0,0,1,1.6-3.2c4.1,14.6,2.7,28.5-5.4,41.6a104.2,104.2,0,0,0,3.1-10.5,92.4,92.4,0,0,0,2-14.8c.1-4.9-1.4-5.6-6.3-4.7a4.3,4.3,0,0,1-1.6-.1Z"/><path d="M245.6,184l-9.4-.6h-7.3l19.3-5.6C245.6,179.8,244.8,182,245.6,184Z"/><path d="M164.5,32.1a21.2,21.2,0,0,0-14.4-5.2,30.3,30.3,0,0,1,4.2-.6c2.8.1,3.4-1.3,3-3.8a17.1,17.1,0,0,1,.5-5.9c.4,1.3.6,2.7,1.1,4,2.1,5.2,7.1,6,10.7,1.6a46.8,46.8,0,0,1,5.3-5.6C171.4,21.7,168,26.9,164.5,32.1Z"/><path d="M45.4,94.5l-17.7,9.2-.3-.2c3.1-2.5,6-5.2,9.3-7.5s4-2.3,1.9-5.3c-.7-1.1-.4-3-.5-3.6Z"/></g></g></svg>