<svg width="32" height="32" viewBox="0 0 32 32" fill="none" xmlns="http://www.w3.org/2000/svg">
<path d="M12.162 12.028C11.574 11.656 10.962 11.38 10.326 11.2C9.702 11.008 9.126 10.912 8.598 10.912C7.866 10.912 7.278 11.056 6.834 11.344C6.402 11.62 6.186 12.004 6.186 12.496C6.186 12.94 6.318 13.306 6.582 13.594C6.846 13.87 7.17 14.092 7.554 14.26C7.938 14.416 8.472 14.602 9.156 14.818C10.008 15.082 10.698 15.334 11.226 15.574C11.754 15.814 12.204 16.174 12.576 16.654C12.948 17.122 13.134 17.746 13.134 18.526C13.134 19.246 12.936 19.876 12.54 20.416C12.156 20.956 11.61 21.376 10.902 21.676C10.206 21.964 9.402 22.108 8.49 22.108C7.566 22.108 6.666 21.928 5.79 21.568C4.914 21.208 4.158 20.728 3.522 20.128L4.296 18.634C4.896 19.222 5.568 19.678 6.312 20.002C7.068 20.314 7.8 20.47 8.508 20.47C9.348 20.47 10.008 20.308 10.488 19.984C10.98 19.648 11.226 19.198 11.226 18.634C11.226 18.19 11.094 17.824 10.83 17.536C10.566 17.248 10.23 17.02 9.822 16.852C9.426 16.684 8.886 16.498 8.202 16.294C7.362 16.042 6.678 15.796 6.15 15.556C5.622 15.316 5.172 14.962 4.8 14.494C4.44 14.026 4.26 13.408 4.26 12.64C4.26 11.968 4.446 11.374 4.818 10.858C5.19 10.342 5.712 9.946 6.384 9.67C7.056 9.394 7.836 9.256 8.724 9.256C9.48 9.256 10.218 9.37 10.938 9.598C11.67 9.814 12.318 10.108 12.882 10.48L12.162 12.028ZM24.8558 9.4H26.5658V22H24.8198L17.6198 12.244V22H15.8918V9.4H17.6378L24.8558 19.174V9.4Z" fill="white"/>
<path d="M30 2L2 30" stroke="#383C41" stroke-width="3"/>
<path d="M31 3L3 31" stroke="white" stroke-width="1.5"/>
</svg>
