<svg width="52" height="32" viewBox="0 0 52 32" fill="none" xmlns="http://www.w3.org/2000/svg">
<path d="M10.764 10.4H12.474V23H10.728L3.528 13.244V23H1.8V10.4H3.546L10.764 20.174V10.4ZM19.889 13.424C20.837 13.424 21.677 13.628 22.409 14.036C23.153 14.444 23.729 15.014 24.137 15.746C24.557 16.466 24.767 17.294 24.767 18.23C24.767 19.166 24.557 20 24.137 20.732C23.729 21.464 23.153 22.034 22.409 22.442C21.677 22.85 20.837 23.054 19.889 23.054C18.929 23.054 18.077 22.85 17.333 22.442C16.601 22.034 16.025 21.47 15.605 20.75C15.197 20.018 14.993 19.178 14.993 18.23C14.993 17.294 15.197 16.466 15.605 15.746C16.025 15.014 16.601 14.444 17.333 14.036C18.077 13.628 18.929 13.424 19.889 13.424ZM19.889 14.882C19.265 14.882 18.707 15.026 18.215 15.314C17.735 15.602 17.357 16.004 17.081 16.52C16.817 17.024 16.685 17.6 16.685 18.248C16.685 18.908 16.817 19.496 17.081 20.012C17.357 20.528 17.735 20.93 18.215 21.218C18.707 21.494 19.265 21.632 19.889 21.632C20.501 21.632 21.047 21.494 21.527 21.218C22.019 20.93 22.397 20.528 22.661 20.012C22.937 19.496 23.075 18.908 23.075 18.248C23.075 17.6 22.937 17.024 22.661 16.52C22.397 16.004 22.019 15.602 21.527 15.314C21.047 15.026 20.501 14.882 19.889 14.882ZM28.7827 15.53C29.0947 14.846 29.5387 14.33 30.1147 13.982C30.6907 13.622 31.3747 13.436 32.1667 13.424V15.044C31.1947 15.008 30.4087 15.26 29.8087 15.8C29.2087 16.34 28.8667 17.066 28.7827 17.978V23H27.1087V13.478H28.7827V15.53ZM46.2758 13.424C47.3678 13.424 48.2258 13.754 48.8498 14.414C49.4738 15.074 49.7858 15.974 49.7858 17.114V23H48.0938V17.564C48.0938 16.76 47.8718 16.13 47.4278 15.674C46.9958 15.218 46.3958 14.99 45.6278 14.99C44.7278 15.014 44.0198 15.332 43.5038 15.944C42.9878 16.556 42.7298 17.342 42.7298 18.302V23H41.0378V17.564C41.0378 16.76 40.8218 16.13 40.3898 15.674C39.9578 15.218 39.3518 14.99 38.5718 14.99C37.6718 15.014 36.9578 15.332 36.4298 15.944C35.9138 16.556 35.6558 17.342 35.6558 18.302V23H33.9818V13.478H35.6558V15.476C36.2798 14.132 37.4618 13.448 39.2018 13.424C40.0778 13.424 40.8038 13.634 41.3798 14.054C41.9678 14.474 42.3638 15.062 42.5678 15.818C43.1558 14.246 44.3918 13.448 46.2758 13.424Z" fill="white"/>
<path d="M39 2L11 30" stroke="#383C41" stroke-width="3"/>
<path d="M40 3L12 31" stroke="white" stroke-width="1.5"/>
</svg>
