<svg width="52" height="22" viewBox="0 0 52 22" fill="none" xmlns="http://www.w3.org/2000/svg">
<path d="M10.764 4.4H12.474V17H10.728L3.528 7.244V17H1.8V4.4H3.546L10.764 14.174V4.4ZM19.889 7.424C20.837 7.424 21.677 7.628 22.409 8.036C23.153 8.444 23.729 9.014 24.137 9.746C24.557 10.466 24.767 11.294 24.767 12.23C24.767 13.166 24.557 14 24.137 14.732C23.729 15.464 23.153 16.034 22.409 16.442C21.677 16.85 20.837 17.054 19.889 17.054C18.929 17.054 18.077 16.85 17.333 16.442C16.601 16.034 16.025 15.47 15.605 14.75C15.197 14.018 14.993 13.178 14.993 12.23C14.993 11.294 15.197 10.466 15.605 9.746C16.025 9.014 16.601 8.444 17.333 8.036C18.077 7.628 18.929 7.424 19.889 7.424ZM19.889 8.882C19.265 8.882 18.707 9.026 18.215 9.314C17.735 9.602 17.357 10.004 17.081 10.52C16.817 11.024 16.685 11.6 16.685 12.248C16.685 12.908 16.817 13.496 17.081 14.012C17.357 14.528 17.735 14.93 18.215 15.218C18.707 15.494 19.265 15.632 19.889 15.632C20.501 15.632 21.047 15.494 21.527 15.218C22.019 14.93 22.397 14.528 22.661 14.012C22.937 13.496 23.075 12.908 23.075 12.248C23.075 11.6 22.937 11.024 22.661 10.52C22.397 10.004 22.019 9.602 21.527 9.314C21.047 9.026 20.501 8.882 19.889 8.882ZM28.7827 9.53C29.0947 8.846 29.5387 8.33 30.1147 7.982C30.6907 7.622 31.3747 7.436 32.1667 7.424V9.044C31.1947 9.008 30.4087 9.26 29.8087 9.8C29.2087 10.34 28.8667 11.066 28.7827 11.978V17H27.1087V7.478H28.7827V9.53ZM46.2758 7.424C47.3678 7.424 48.2258 7.754 48.8498 8.414C49.4738 9.074 49.7858 9.974 49.7858 11.114V17H48.0938V11.564C48.0938 10.76 47.8718 10.13 47.4278 9.674C46.9958 9.218 46.3958 8.99 45.6278 8.99C44.7278 9.014 44.0198 9.332 43.5038 9.944C42.9878 10.556 42.7298 11.342 42.7298 12.302V17H41.0378V11.564C41.0378 10.76 40.8218 10.13 40.3898 9.674C39.9578 9.218 39.3518 8.99 38.5718 8.99C37.6718 9.014 36.9578 9.332 36.4298 9.944C35.9138 10.556 35.6558 11.342 35.6558 12.302V17H33.9818V7.478H35.6558V9.476C36.2798 8.132 37.4618 7.448 39.2018 7.424C40.0778 7.424 40.8038 7.634 41.3798 8.054C41.9678 8.474 42.3638 9.062 42.5678 9.818C43.1558 8.246 44.3918 7.448 46.2758 7.424Z" fill="white"/>
</svg>
