<svg width="40" height="40" viewBox="0 0 40 40" fill="none" xmlns="http://www.w3.org/2000/svg">
<path d="M21.0001 29.7124C21.0001 31.3693 22.31 33.1223 23.9663 33.077C24.2544 33.0691 24.5931 33.0452 25 32.9996C26.0805 32.8785 26.6214 32.2126 27.5 31.4998C28.1459 30.9758 29.3307 30.0321 29.8005 29.6584C29.9337 29.5525 30.0751 29.4594 30.2157 29.3636C30.8127 28.957 32.4769 27.6149 33 24.9998C33.5 22.4998 34 17.9998 32.5 14.9998C31.5 12.9998 30.7638 12.3478 29.5 10.9993C28.0945 9.49978 27.6216 8.08051 26 6.99961C25.1343 6.42258 24.1021 6.34509 23.0957 6.47882C21.8155 6.6489 21.0001 7.87069 21.0001 9.16211L21.0001 19.856L21.0001 29.7124Z" fill="white" stroke="white"/>
<path d="M18.4999 29.7124C18.4999 31.3693 17.19 33.1223 15.5337 33.077C15.2456 33.0691 14.9069 33.0452 14.5 32.9996C13.4195 32.8785 12.8786 32.2126 12 31.4998C11.3541 30.9758 10.1693 30.0321 9.69948 29.6584C9.56631 29.5525 9.42492 29.4594 9.28427 29.3636C8.68729 28.957 7.02305 27.6149 6.50001 24.9998C5.99998 22.4998 5.50002 17.9998 7.00002 14.9998C8.00002 12.9998 8.73617 12.3478 10 10.9993C11.4055 9.49978 11.8784 8.08051 13.5 6.99961C14.3657 6.42258 15.3979 6.34509 16.4043 6.47882C17.6845 6.6489 18.4999 7.87069 18.4999 9.16211L18.4999 19.856L18.4999 29.7124Z" stroke="white"/>
</svg>
