<svg width="26" height="21" viewBox="0 0 26 21" fill="none" xmlns="http://www.w3.org/2000/svg">
<path d="M9.162 7.028C8.574 6.656 7.962 6.38 7.326 6.2C6.702 6.008 6.126 5.912 5.598 5.912C4.866 5.912 4.278 6.056 3.834 6.344C3.402 6.62 3.186 7.004 3.186 7.496C3.186 7.94 3.318 8.306 3.582 8.594C3.846 8.87 4.17 9.092 4.554 9.26C4.938 9.416 5.472 9.602 6.156 9.818C7.008 10.082 7.698 10.334 8.226 10.574C8.754 10.814 9.204 11.174 9.576 11.654C9.948 12.122 10.134 12.746 10.134 13.526C10.134 14.246 9.936 14.876 9.54 15.416C9.156 15.956 8.61 16.376 7.902 16.676C7.206 16.964 6.402 17.108 5.49 17.108C4.566 17.108 3.666 16.928 2.79 16.568C1.914 16.208 1.158 15.728 0.522 15.128L1.296 13.634C1.896 14.222 2.568 14.678 3.312 15.002C4.068 15.314 4.8 15.47 5.508 15.47C6.348 15.47 7.008 15.308 7.488 14.984C7.98 14.648 8.226 14.198 8.226 13.634C8.226 13.19 8.094 12.824 7.83 12.536C7.566 12.248 7.23 12.02 6.822 11.852C6.426 11.684 5.886 11.498 5.202 11.294C4.362 11.042 3.678 10.796 3.15 10.556C2.622 10.316 2.172 9.962 1.8 9.494C1.44 9.026 1.26 8.408 1.26 7.64C1.26 6.968 1.446 6.374 1.818 5.858C2.19 5.342 2.712 4.946 3.384 4.67C4.056 4.394 4.836 4.256 5.724 4.256C6.48 4.256 7.218 4.37 7.938 4.598C8.67 4.814 9.318 5.108 9.882 5.48L9.162 7.028ZM21.8558 4.4H23.5658V17H21.8198L14.6198 7.244V17H12.8918V4.4H14.6378L21.8558 14.174V4.4Z" fill="white"/>
</svg>
