<svg width="40" height="40" viewBox="0 0 40 40" fill="none" xmlns="http://www.w3.org/2000/svg">
<path d="M16.162 17.028C15.574 16.656 14.962 16.38 14.326 16.2C13.702 16.008 13.126 15.912 12.598 15.912C11.866 15.912 11.278 16.056 10.834 16.344C10.402 16.62 10.186 17.004 10.186 17.496C10.186 17.94 10.318 18.306 10.582 18.594C10.846 18.87 11.17 19.092 11.554 19.26C11.938 19.416 12.472 19.602 13.156 19.818C14.008 20.082 14.698 20.334 15.226 20.574C15.754 20.814 16.204 21.174 16.576 21.654C16.948 22.122 17.134 22.746 17.134 23.526C17.134 24.246 16.936 24.876 16.54 25.416C16.156 25.956 15.61 26.376 14.902 26.676C14.206 26.964 13.402 27.108 12.49 27.108C11.566 27.108 10.666 26.928 9.79 26.568C8.914 26.208 8.158 25.728 7.522 25.128L8.296 23.634C8.896 24.222 9.568 24.678 10.312 25.002C11.068 25.314 11.8 25.47 12.508 25.47C13.348 25.47 14.008 25.308 14.488 24.984C14.98 24.648 15.226 24.198 15.226 23.634C15.226 23.19 15.094 22.824 14.83 22.536C14.566 22.248 14.23 22.02 13.822 21.852C13.426 21.684 12.886 21.498 12.202 21.294C11.362 21.042 10.678 20.796 10.15 20.556C9.622 20.316 9.172 19.962 8.8 19.494C8.44 19.026 8.26 18.408 8.26 17.64C8.26 16.968 8.446 16.374 8.818 15.858C9.19 15.342 9.712 14.946 10.384 14.67C11.056 14.394 11.836 14.256 12.724 14.256C13.48 14.256 14.218 14.37 14.938 14.598C15.67 14.814 16.318 15.108 16.882 15.48L16.162 17.028ZM28.8558 14.4H30.5658V27H28.8198L21.6198 17.244V27H19.8918V14.4H21.6378L28.8558 24.174V14.4Z" fill="white"/>
<path d="M34 6L6 34" stroke="#383C41" stroke-width="3"/>
<path d="M35 7L7 35" stroke="white" stroke-width="1.5"/>
</svg>
